<?xml version="1.0" encoding="utf-8"?>
<!-- Generator: Adobe Illustrator 26.0.1, SVG Export Plug-In . SVG Version: 6.00 Build 0)  -->
<svg version="1.1" id="Layer_1" xmlns="http://www.w3.org/2000/svg" xmlns:xlink="http://www.w3.org/1999/xlink" x="0px" y="0px"
	 viewBox="0 0 270 250" style="enable-background:new 0 0 270 250;" xml:space="preserve">
<style type="text/css">
	.st0{fill:#9BC439;}
	.st1{fill:#388921;}
	.st2{opacity:0.5;fill:#9BC439;enable-background:new    ;}
	.st3{fill:#539738;}
	.st4{opacity:0.5;fill:#3F742B;enable-background:new    ;}
	.st5{fill:#BC2243;}
	.st6{fill:#62222F;}
	.st7{opacity:0.7;fill:#B8B7A1;enable-background:new    ;}
	.st8{opacity:0.6;fill:#BC2243;enable-background:new    ;}
	.st9{fill:#6A412D;}
</style>
<g>
	<g>
		<g>
			<g>
				<g>
					<path class="st0" d="M75.4,129.13c-0.54-0.99-0.92-1.96-1.22-3.02c-0.98-3.55-0.97-7.21-2.38-10.69
						c-0.58-1.43-1.44-2.74-2.57-3.87c-0.56-0.56-1.24-1.04-1.89-1.52c-1.25-0.9-2.12-1.69-2.86-2.98
						c-1.96-3.41-2.46-7.28-5.06-10.44c-1.17-1.41-2.52-2.66-3.76-4.01c-1.47-1.61-2.25-3.57-2.9-5.53c-0.58-1.78-1.13-3.51-2-5.2
						c-0.97-1.88-2.1-3.68-3.15-5.53c-3.4-6.01-4.91-13.8-11.39-17.97c-6.28-4.05-14-0.84-18.17,4.11
						c-2.79,3.32-4.12,7.61-3.28,11.59c0.75,2.03,1.97,3.88,3.99,5.22c2.6,1.72,5.98,2.19,8.47,4.04c3.05,2.26,1.4,5.91,2.88,8.75
						c1.5,2.87,4.62,3.57,7.53,4.92c2.74,1.27,3.79,3.91,4.78,6.35c1.22,3.04,2.96,5.88,5.99,7.8c1.9,1.21,3.84,1.7,6.12,2.08
						c1.77,0.29,3.66,0.55,5.29,1.26c2.45,1.07,4.69,2.47,6.46,4.31c2.74,1.76,4.26,4.8,5.43,7.5c0.78,1.79,1.52,3.59,2.27,5.39
						c0.28,1.16,0.84,2.21,1.21,3.34c0.18,0.54,0.05,1.4,0.58,1.78c0.17,0.12,0.37-0.24,0.36-0.34c-0.26-1.74,0.32-3.49,0.14-5.24
						C76.2,130.5,75.77,129.8,75.4,129.13z"/>
					<path class="st1" d="M75.86,137.14L75.86,137.14c-0.09,0-0.19-0.03-0.27-0.09c-0.47-0.33-0.53-0.88-0.59-1.37
						c-0.03-0.2-0.05-0.39-0.1-0.55c-0.15-0.45-0.33-0.9-0.51-1.33c-0.26-0.65-0.53-1.32-0.71-2.03c-0.69-1.68-1.46-3.52-2.25-5.35
						c-1.24-2.84-2.74-5.7-5.32-7.38c-0.02-0.01-0.03-0.03-0.05-0.05c-1.61-1.66-3.75-3.09-6.36-4.24c-1.44-0.63-3.11-0.9-4.72-1.16
						l-0.5-0.08c-2.35-0.39-4.32-0.9-6.24-2.12c-2.67-1.7-4.61-4.22-6.1-7.93c-0.99-2.46-2-4.99-4.62-6.2
						c-0.59-0.28-1.21-0.53-1.8-0.78c-2.38-0.99-4.62-1.9-5.86-4.28c-0.62-1.18-0.71-2.49-0.8-3.75c-0.14-1.87-0.26-3.63-1.99-4.91
						c-1.27-0.94-2.83-1.53-4.34-2.11c-1.41-0.54-2.85-1.08-4.12-1.92c-1.88-1.25-3.23-3-4.09-5.36c-0.85-3.94,0.4-8.35,3.32-11.84
						c3.14-3.74,7.8-6.06,12.16-6.06c2.32,0,4.49,0.63,6.44,1.89c4.67,3,6.79,7.86,8.84,12.54c0.82,1.87,1.66,3.8,2.64,5.53
						c0.36,0.63,0.73,1.25,1.09,1.89c0.7,1.19,1.42,2.42,2.06,3.66c0.84,1.64,1.37,3.26,1.94,4.99l0.08,0.24
						c0.72,2.19,1.47,3.95,2.84,5.43c0.46,0.5,0.94,0.99,1.41,1.47c0.8,0.81,1.62,1.66,2.35,2.55c1.57,1.89,2.39,4.07,3.18,6.17
						c0.54,1.44,1.11,2.93,1.91,4.31c0.74,1.27,1.61,2.05,2.78,2.89l0.08,0.06c0.64,0.46,1.3,0.93,1.85,1.49
						c1.15,1.16,2.03,2.49,2.63,3.95c0.84,2.07,1.18,4.23,1.52,6.32c0.23,1.45,0.47,2.95,0.87,4.4c0.3,1.09,0.69,2.03,1.19,2.97
						l0.1,0.19c0.36,0.63,0.72,1.29,0.8,2.02c0.09,0.86,0,1.72-0.08,2.55c-0.09,0.93-0.19,1.8-0.06,2.68
						c0.03,0.17-0.09,0.39-0.22,0.52C76.09,137.11,75.95,137.14,75.86,137.14z M66.5,118.62c2.7,1.76,4.24,4.7,5.5,7.61
						c0.8,1.83,1.55,3.66,2.27,5.4c0.18,0.71,0.44,1.36,0.69,1.99c0.18,0.44,0.36,0.9,0.52,1.37c0.06,0.19,0.09,0.42,0.12,0.63
						c0.03,0.31,0.08,0.62,0.21,0.84c-0.14-0.9-0.03-1.83,0.06-2.74c0.08-0.8,0.17-1.65,0.08-2.45c-0.07-0.63-0.41-1.23-0.74-1.83
						l-0.11-0.19c-0.53-0.98-0.93-1.95-1.24-3.08c-0.41-1.47-0.65-2.99-0.89-4.45c-0.33-2.06-0.67-4.19-1.48-6.2
						c-0.57-1.4-1.41-2.67-2.51-3.78c-0.52-0.53-1.16-0.99-1.78-1.43l-0.08-0.06c-1.24-0.89-2.15-1.71-2.94-3.06
						c-0.82-1.42-1.39-2.92-1.94-4.38c-0.78-2.06-1.58-4.19-3.09-6.02c-0.72-0.88-1.53-1.71-2.32-2.52
						c-0.48-0.49-0.96-0.99-1.42-1.48c-1.42-1.54-2.21-3.37-2.95-5.63l-0.08-0.24c-0.56-1.71-1.08-3.32-1.91-4.92
						c-0.63-1.22-1.35-2.45-2.04-3.64c-0.37-0.63-0.74-1.25-1.1-1.89c-1-1.76-1.85-3.7-2.67-5.58c-2.02-4.61-4.1-9.38-8.63-12.3
						c-1.84-1.19-3.89-1.78-6.07-1.78c-4.17,0-8.64,2.24-11.66,5.84c-2.82,3.36-4.03,7.62-3.22,11.37c0.82,2.21,2.08,3.88,3.86,5.05
						c1.21,0.8,2.63,1.34,4,1.86c1.54,0.58,3.14,1.2,4.49,2.18c1.93,1.43,2.07,3.4,2.21,5.29c0.09,1.22,0.19,2.47,0.75,3.55
						c1.14,2.18,3.29,3.07,5.56,4.01c0.6,0.25,1.22,0.5,1.83,0.78c2.84,1.32,3.94,4.06,4.91,6.48c1.46,3.63,3.33,6.07,5.89,7.69
						c1.84,1.17,3.73,1.66,6,2.03l0.5,0.08c1.65,0.27,3.35,0.55,4.88,1.21C62.65,115.45,64.84,116.91,66.5,118.62z"/>
				</g>
				<path class="st0" d="M30.59,82.95c-0.76-2.58-1.84-5.14-4.8-6.35c-0.64-0.26-1.3-0.43-1.97-0.55c2.63,1.27,4.62,3.31,5.55,6.12
					c0.73,2.2,0.95,4.61,2.11,6.69c0.9,1.61,2.24,2.6,3.94,3.19C32.29,89.89,31.6,86.4,30.59,82.95z"/>
				<path class="st2" d="M26.78,68.09c3.61,3.81,6.22,7.96,8.63,12.43c3.79,7.04,7.66,14.13,13.72,19.89
					c5.73,5.45,12.73,9.75,17.84,15.71c2.98,3.46,5.51,7.23,7.6,11.2c-0.14-0.39-0.28-0.79-0.4-1.22
					c-0.98-3.55-0.97-7.21-2.38-10.69c-0.58-1.43-1.44-2.74-2.57-3.87c-0.56-0.56-1.24-1.04-1.89-1.52
					c-1.25-0.9-2.12-1.69-2.86-2.98c-1.96-3.41-2.46-7.28-5.06-10.44c-1.17-1.41-2.52-2.66-3.76-4.01c-1.47-1.61-2.25-3.57-2.9-5.53
					c-0.58-1.78-1.13-3.51-2-5.2c-0.97-1.88-2.1-3.68-3.15-5.53c-3.4-6.01-4.91-13.8-11.39-17.97c-5.9-3.8-13.08-1.21-17.37,3.23
					C21.89,63.34,24.53,65.71,26.78,68.09z"/>
				<path class="st3" d="M68.13,116.7c-3.64-5.14-9.84-8.95-14.46-13.38c-4.95-4.76-9.32-10.06-12.69-15.8
					c-3.06-5.22-6.64-10.87-11.81-14.67c-0.11-0.09-0.3,0.2-0.21,0.29c4.62,4.38,7.86,10.32,10.59,15.77
					c2.73,5.43,6.78,10.27,11.26,14.66c4.59,4.52,9.84,8.39,14.65,12.7c5.09,4.55,7.36,10.03,9.8,15.96
					c0.1,0.26,0.45-0.12,0.42-0.28C74.69,126.36,71.46,121.4,68.13,116.7z"/>
				<path class="st0" d="M39.99,96.64c-1.66-2.6-4.8-2.47-7.4-3.82c-2.48-1.29-2.47-4.46-3.54-6.65c0.46,1.92,0.11,4.11,1.08,5.94
					c1.5,2.87,4.62,3.57,7.53,4.92c2.07,0.96,3.17,2.69,4.01,4.53C41.75,99.88,40.67,97.7,39.99,96.64z"/>
				<path class="st0" d="M27.25,83.35c0.27,0.2,0.48,0.41,0.69,0.63c-0.1-0.71-0.3-1.35-0.5-1.71c-1.35-2.5-4.07-3.98-6.75-5.21
					c-1.83-0.83-3.82-1.6-5.34-2.86c-0.2-0.17-0.4-0.35-0.58-0.55c0.01,0.11,0.01,0.23,0.02,0.34c0.01,0.03,0.01,0.06,0.02,0.09
					c0.75,2.03,1.97,3.88,3.99,5.22C21.37,81.05,24.75,81.51,27.25,83.35z"/>
				<path class="st2" d="M75.4,129.13c-0.54-0.99-0.92-1.96-1.22-3.02c-0.98-3.55-0.97-7.21-2.38-10.69
					c-0.58-1.43-1.44-2.74-2.57-3.87c-0.56-0.56-1.24-1.04-1.89-1.52c-1.25-0.9-2.12-1.69-2.86-2.98
					c-1.96-3.41-2.46-7.28-5.06-10.44c-1.17-1.41-2.52-2.66-3.76-4.01c-1.47-1.61-2.25-3.57-2.9-5.53c-0.58-1.78-1.13-3.51-2-5.2
					c-0.97-1.88-2.1-3.68-3.15-5.53c-3.4-6.01-4.91-13.8-11.39-17.97c-6.28-4.05-14-0.84-18.17,4.11c-1.34,1.6-2.35,3.43-2.93,5.33
					c0.3-0.74,0.64-1.44,1.08-2.11c1.36-2.11,3.46-3.94,6.17-4.55c3-0.67,6.26-0.14,8.71,1.58c6.15,4.33,6.53,11.94,10.65,17.44
					c2.03,2.71,5.97,4.02,7.24,7.21c0.55,1.38,0.53,2.81,0.93,4.2c0.35,1.19,1.08,2.23,1.98,3.16c3.1,3.15,8.9,6.06,7.83,10.94
					c-0.03,0.17-0.19,0.27-0.38,0.22c-7.3-1.73-11.87-8.7-15.74-13.91c-2.47-3.33-4.72-6.76-7.03-10.18
					c-2.15-3.2-4.53-6.22-7.64-8.67c0.06,0.08,0.14,0.14,0.19,0.21c4.63,5.47,7,12.01,10.32,18.12c1.46,2.69,3.06,5.57,5.32,7.81
					c1.41,1.4,2.85,2.76,4.14,4.24c1.19,1.37,2.57,2.97,2.81,4.74c0.16,1.16-0.82,2.27-2.21,2.16c-1.74-0.12-3.28-1.29-4.52-2.4
					c0.92,1.2,2.03,2.27,3.42,3.15c1.9,1.21,3.84,1.7,6.12,2.08c1.77,0.29,3.66,0.55,5.29,1.26c2.45,1.07,4.69,2.47,6.46,4.31
					c2.74,1.76,4.26,4.8,5.43,7.5c0.78,1.79,1.52,3.59,2.27,5.39c0.28,1.16,0.84,2.21,1.21,3.34c0.18,0.54,0.05,1.4,0.58,1.78
					c0.17,0.12,0.37-0.24,0.36-0.34c-0.26-1.74,0.32-3.49,0.14-5.24C76.2,130.5,75.77,129.8,75.4,129.13z"/>
			</g>
			<g>
				<g>
					<path class="st0" d="M92.21,46.76c-1.54-4.52-5.44-8.4-10.21-10.39c-3.32-1.39-6.94-1.55-10.29-0.62
						c-3.81,1.69-7.08,4.63-8.78,7.93c-0.59,1.16-1.07,2.39-1.17,3.66c-0.12,1.48,0.37,2.83,0.57,4.29
						c0.16,1.23,0.08,2.66-0.73,3.72c-0.73,0.95-1.86,1.56-2.63,2.48c-2.52,3.04,1.19,6.02,0.4,9.25c-0.64,2.66-3.7,4.46-5.41,6.57
						c-0.48,0.59-0.93,1.21-1.35,1.84c-0.48,0.8-0.97,1.64-1.37,2.51c-0.64,1.46-1.02,3-1.02,4.59c0.03,0.29,0.06,0.56,0.13,0.84
						c0.81,3.41,4.09,5.91,6.55,8.44c1.47,1.5,2.4,3.17,2.9,5.09c0.53,2.04,0.23,4.12,0.19,6.19c-0.06,3.64,1.23,6.73,3.68,9.63
						c1.28,1.52,2.29,2.96,2.82,4.81c0.58,1.99,0.68,4.11,0.85,6.15c0.34,4.07,0.51,8.15,0.97,12.21c0.33,2.85,0.43,6.29,1.74,9.09
						c0.22,1.54,0.7,3.43,1.65,2.67c0.5-0.4,0.6-1.26,0.73-1.82c0.28-1.27,0.13-2.4-0.17-3.66c-0.47-1.98-0.22-3.55,0.43-5.46
						c0.53-1.56,1.01-3.08,1.26-4.7c0.23-1.42,0.04-2.74-0.31-4.11c-0.32-1.25-0.56-2.52-0.85-3.77c0-0.02-0.01-0.04-0.01-0.07
						c0.04-0.07,0.06-0.15,0.07-0.23c0.01-0.08-0.08-0.05-0.1,0c-0.16-1.09-0.29-2.18-0.33-3.28c-0.09-2.22,0.34-4.44,0.8-6.61
						c0.82-3.92,1.19-7.89,1.77-11.84c0.58-3.93,2.18-7.69,5.12-10.72c2.32-2.38,5.35-4.33,6.23-7.54c0.88-3.21-1.04-6.58-2.08-9.56
						c-0.64-1.83-1.41-3.51-1.56-5.45c-0.19-2.34,1.09-4.2,2.86-5.81c2.46-2.24,4.96-4.28,6.47-7.18
						C93.47,53.08,93.21,49.68,92.21,46.76z"/>
					<path class="st1" d="M71.29,148.16c-0.47,0-1.14-0.32-1.54-3.05c-1.07-2.32-1.34-5.08-1.58-7.52c-0.05-0.55-0.1-1.09-0.16-1.61
						c-0.3-2.57-0.47-5.2-0.65-7.73c-0.1-1.49-0.2-3-0.33-4.49l-0.06-0.79c-0.14-1.77-0.29-3.61-0.78-5.31
						c-0.52-1.82-1.48-3.2-2.76-4.72c-2.57-3.05-3.79-6.25-3.73-9.8c0.01-0.51,0.03-1.01,0.06-1.53c0.08-1.52,0.15-3.1-0.24-4.59
						c-0.5-1.89-1.42-3.52-2.83-4.97c-0.49-0.5-1.01-1-1.53-1.51c-2.17-2.1-4.42-4.26-5.09-7.06c-0.06-0.26-0.1-0.54-0.14-0.88
						c0-1.54,0.36-3.12,1.05-4.71c0.36-0.77,0.78-1.54,1.38-2.54c0.41-0.64,0.87-1.26,1.36-1.88c0.58-0.72,1.33-1.42,2.06-2.09
						c1.42-1.32,2.9-2.69,3.3-4.38c0.31-1.3-0.14-2.6-0.59-3.86c-0.64-1.79-1.3-3.64,0.25-5.5c0.38-0.46,0.85-0.85,1.3-1.22
						c0.49-0.4,0.96-0.78,1.31-1.25c0.81-1.05,0.81-2.51,0.68-3.54c-0.07-0.48-0.16-0.96-0.25-1.42c-0.19-0.94-0.39-1.9-0.31-2.93
						c0.09-1.15,0.47-2.34,1.19-3.76c1.71-3.33,5.05-6.34,8.93-8.07c3.61-1,7.27-0.76,10.56,0.62c4.95,2.07,8.82,6.02,10.38,10.56
						c1.18,3.45,1.09,6.77-0.25,9.35c-1.34,2.57-3.41,4.44-5.61,6.42c-0.3,0.28-0.61,0.55-0.91,0.83c-2.05,1.88-2.93,3.66-2.78,5.6
						c0.12,1.51,0.62,2.87,1.15,4.3c0.14,0.36,0.27,0.72,0.4,1.09c0.21,0.61,0.47,1.23,0.73,1.89c1.02,2.55,2.08,5.2,1.36,7.82
						c-0.68,2.47-2.6,4.21-4.45,5.9c-0.62,0.56-1.26,1.15-1.84,1.74c-2.72,2.8-4.42,6.36-5.04,10.57c-0.19,1.28-0.36,2.55-0.52,3.84
						c-0.34,2.63-0.69,5.35-1.25,8.01c-0.48,2.32-0.88,4.4-0.79,6.55c0.03,0.93,0.14,1.92,0.3,3.03c0.02,0.01,0.03,0.02,0.04,0.03
						c0.06,0.06,0.1,0.17,0.09,0.24c-0.01,0.09-0.03,0.17-0.05,0.25c0.12,0.52,0.22,1,0.32,1.47c0.16,0.75,0.32,1.52,0.52,2.27
						c0.43,1.66,0.53,2.93,0.32,4.22c-0.27,1.71-0.8,3.34-1.28,4.74c-0.61,1.81-0.9,3.33-0.42,5.33c0.27,1.14,0.48,2.37,0.18,3.77
						l-0.05,0.25c-0.12,0.58-0.26,1.31-0.77,1.72C71.7,148.09,71.5,148.16,71.29,148.16z M75.98,35.43c-1.41,0-2.81,0.19-4.18,0.56
						c-3.71,1.65-6.94,4.56-8.59,7.78c-0.69,1.35-1.06,2.49-1.14,3.57c-0.08,0.96,0.11,1.85,0.3,2.79c0.09,0.47,0.19,0.96,0.26,1.44
						c0.22,1.64-0.04,2.96-0.78,3.91c-0.4,0.52-0.91,0.94-1.41,1.35c-0.45,0.37-0.88,0.72-1.23,1.14c-1.36,1.65-0.77,3.28-0.15,5.01
						c0.47,1.32,0.96,2.7,0.61,4.13c-0.45,1.85-1.98,3.27-3.46,4.65c-0.74,0.69-1.44,1.34-2,2.03c-0.48,0.59-0.92,1.21-1.33,1.82
						c-0.58,0.98-1.01,1.74-1.35,2.48c-0.66,1.52-1,3.03-1,4.49c0.03,0.3,0.07,0.55,0.12,0.78c0.64,2.66,2.82,4.77,4.94,6.8
						c0.53,0.51,1.05,1.01,1.54,1.52c1.47,1.51,2.45,3.22,2.96,5.21c0.41,1.57,0.33,3.19,0.25,4.75c-0.03,0.51-0.05,1.01-0.06,1.51
						c-0.06,3.46,1.09,6.47,3.62,9.45c1.15,1.36,2.3,2.9,2.87,4.91c0.51,1.76,0.65,3.62,0.8,5.41l0.06,0.78
						c0.13,1.49,0.23,3,0.33,4.5c0.17,2.53,0.35,5.15,0.64,7.71c0.06,0.52,0.11,1.06,0.17,1.61c0.24,2.41,0.5,5.15,1.55,7.4
						c0.01,0.02,0.02,0.05,0.02,0.07c0.3,2.13,0.78,2.6,0.93,2.6c0.05,0,0.13-0.04,0.2-0.11c0.36-0.28,0.48-0.93,0.58-1.41
						l0.05-0.26c0.27-1.22,0.13-2.31-0.17-3.55c-0.5-2.11-0.19-3.76,0.44-5.6c0.47-1.38,0.99-2.99,1.25-4.65
						c0.19-1.22,0.1-2.42-0.31-4.02c-0.19-0.77-0.36-1.54-0.53-2.29c-0.11-0.5-0.21-1-0.32-1.48c-0.01-0.04-0.01-0.13,0-0.19
						c-0.03-0.04-0.04-0.08-0.05-0.11c-0.18-1.22-0.29-2.3-0.33-3.31c-0.09-2.2,0.32-4.41,0.8-6.67c0.55-2.64,0.91-5.35,1.24-7.97
						c0.17-1.28,0.33-2.56,0.53-3.85c0.64-4.32,2.39-7.97,5.19-10.86c0.59-0.61,1.24-1.2,1.87-1.77c1.88-1.71,3.66-3.33,4.29-5.66
						c0.68-2.46-0.36-5.02-1.35-7.5c-0.26-0.66-0.52-1.29-0.74-1.91c-0.13-0.36-0.26-0.73-0.39-1.08c-0.54-1.46-1.06-2.85-1.18-4.43
						c-0.17-2.11,0.77-4.03,2.95-6.03c0.3-0.28,0.61-0.55,0.91-0.83c2.15-1.94,4.19-3.78,5.49-6.27c1.72-3.31,0.87-7.03,0.21-8.96
						c-1.5-4.4-5.26-8.22-10.05-10.23C80,35.83,78.02,35.43,75.98,35.43z"/>
				</g>
				<path class="st0" d="M66.23,55.52c-1.1,1.35-2.7,2.39-3.65,3.84c-1.38,2.11-0.51,4.32,0.3,6.46c0.53,1.4,1.24,2.98,0.78,4.47
					c-0.58,1.92-2.29,3.24-3.85,4.57c-1.89,1.6-4.23,3.48-4.86,5.84c-0.64,2.42,0.86,4,2.63,5.46c-0.88-1.44-1.4-3.05-0.86-4.7
					c0.77-2.37,2.67-4.33,4.69-5.95c1.87-1.5,4.69-3.31,4.85-5.76c0.19-2.86-2.36-4.83-3.35-7.38c-0.86-2.22,0.52-3.89,2.29-5.4
					c1.02-0.86,2.46-1.7,3.21-2.77c0.98-1.4,0.05-2.86-0.9-4.08c-0.3-0.39-0.58-0.78-0.83-1.16c0.08,0.42,0.19,0.84,0.32,1.29
					C67.55,52.12,67.55,53.91,66.23,55.52z"/>
				<path class="st2" d="M92.21,46.76c-1.54-4.52-5.44-8.4-10.21-10.39c-1.1-0.46-2.23-0.78-3.37-0.97
					c0.76,1.73,0.26,3.88-0.22,5.59c-1.09,3.86-2.81,7.57-4.1,11.37c-1.68,4.95-3.1,9.98-3.97,15.09c-2.73,16-3.02,32.36-1.66,48.48
					c0.83,9.89,1.85,19.84,3.82,29.63c0.18-1.13,0.03-2.17-0.24-3.31c-0.47-1.98-0.22-3.55,0.43-5.46c0.53-1.56,1.01-3.08,1.26-4.7
					c0.23-1.42,0.04-2.74-0.31-4.11c-0.32-1.25-0.56-2.52-0.85-3.77c0-0.02-0.01-0.04-0.01-0.07c0.04-0.07,0.06-0.15,0.07-0.23
					c0.01-0.08-0.08-0.05-0.1,0c-0.16-1.09-0.29-2.18-0.33-3.28c-0.09-2.22,0.34-4.44,0.8-6.61c0.82-3.92,1.19-7.89,1.77-11.84
					c0.58-3.93,2.18-7.69,5.12-10.72c2.32-2.38,5.35-4.33,6.23-7.54c0.88-3.21-1.04-6.58-2.08-9.56c-0.64-1.83-1.41-3.51-1.56-5.45
					c-0.19-2.34,1.09-4.2,2.86-5.81c2.46-2.24,4.96-4.28,6.47-7.18C93.47,53.08,93.21,49.68,92.21,46.76z"/>
				<path class="st3" d="M76.76,47.86c-2.86,6.78-5.45,13.62-6.99,20.75c-1.66,7.74-1.23,15.56-1.8,23.38
					c-0.51,7.16-1.81,14.12-1.19,21.32c0.68,7.79,1.93,15.75,3.46,23.43c0.13,0.63,0.86-0.06,0.84-0.44
					c-0.54-7.41-1.58-14.76-2.23-22.15c-0.67-7.64,0.47-15.06,1.08-22.66c0.58-7.17,0.1-14.35,1.25-21.5
					c1.21-7.49,3.57-14.85,5.9-22.11C77.2,47.58,76.85,47.64,76.76,47.86z"/>
				<path class="st2" d="M92.21,46.76c-1.54-4.52-5.44-8.4-10.21-10.39c-3.32-1.39-6.94-1.55-10.29-0.62
					c-3.81,1.69-7.08,4.63-8.78,7.93c-0.59,1.16-1.07,2.39-1.17,3.66c-0.12,1.48,0.37,2.83,0.57,4.29c0.16,1.23,0.08,2.66-0.73,3.72
					c-0.73,0.95-1.86,1.56-2.63,2.48c-2.52,3.04,1.19,6.02,0.4,9.25c-0.64,2.66-3.7,4.46-5.41,6.57c-0.48,0.59-0.93,1.21-1.35,1.84
					c-0.48,0.8-0.97,1.64-1.37,2.51c-0.64,1.46-1.02,3-1.02,4.59c0.03,0.29,0.06,0.56,0.13,0.84c0.81,3.41,4.09,5.91,6.55,8.44
					c1.47,1.5,2.4,3.17,2.9,5.09c0.53,2.04,0.23,4.12,0.19,6.19c-0.06,3.64,1.23,6.73,3.68,9.63c1.28,1.52,2.29,2.96,2.82,4.81
					c0.58,1.99,0.68,4.11,0.85,6.15c0.34,4.07,0.51,8.15,0.97,12.21c0.33,2.85,0.43,6.29,1.74,9.09c0.22,1.54,0.7,3.43,1.65,2.67
					c0.5-0.4,0.6-1.26,0.73-1.82c0.28-1.27,0.13-2.4-0.17-3.66c-0.47-1.98-0.22-3.55,0.43-5.46c0.53-1.56,1.01-3.08,1.26-4.7
					c0.23-1.42,0.04-2.74-0.31-4.11c-0.32-1.25-0.56-2.52-0.85-3.77c0-0.02-0.01-0.04-0.01-0.07c0.04-0.07,0.06-0.15,0.07-0.23
					c0.01-0.08-0.08-0.05-0.1,0c-0.16-1.09-0.29-2.18-0.33-3.28c-0.09-2.22,0.34-4.44,0.8-6.61c0.82-3.92,1.19-7.89,1.77-11.84
					c0.58-3.93,2.18-7.69,5.12-10.72c2.32-2.38,5.35-4.33,6.23-7.54c0.88-3.21-1.04-6.58-2.08-9.56c-0.64-1.83-1.41-3.51-1.56-5.45
					c-0.19-2.34,1.09-4.2,2.86-5.81c2.46-2.24,4.96-4.28,6.47-7.18C93.47,53.08,93.21,49.68,92.21,46.76z M88.4,52.12
					c-1.19,6.22-11.19,9.02-10.08,15.8c0.5,3.06,2.52,5.73,3.29,8.75c0.75,2.96,1,6.3-0.55,9.1c-1.59,2.89-4.92,4.44-6.73,7.17
					c-1.73,2.61-2.19,5.81-4.46,8.14c-0.15,0.15-0.48,0.15-0.52-0.1c-0.35-2.23-0.17-4.48,0.05-6.72c0.24-2.47,0.32-4.94,0.55-7.41
					c0.45-4.92,1.28-9.78,2.19-14.64c1.7-9.18,3.87-18.29,6.56-27.28c-7.15,7.3-10.43,16.78-10.77,26.38c-0.1,2.79,0,5.59-0.19,8.38
					c-0.18,2.81-0.47,5.61-0.81,8.4c-0.7,5.75-1.52,11.49-1.7,17.28c-0.01,0.26-0.41,0.31-0.54,0.1c-1.35-2.19-3.18-4.48-3.43-7.03
					c-0.17-1.81,0.13-3.69-0.31-5.48c-0.39-1.56-1.33-2.77-2.66-3.83c-2.45-1.95-5.32-3.78-5.79-6.91
					c-0.42-2.81,0.79-5.59,3.04-7.58c2.27-2.01,7.17-4.29,6.43-7.67c-0.53-2.38-2.76-4.84-1.93-7.37c0.85-2.58,3.96-3.89,4.44-6.69
					c0.47-2.75-0.34-5.52,0.66-8.22c0.97-2.59,2.85-4.68,5.35-6.26c0.08-0.05,0.15-0.06,0.23-0.05c2.3-1.49,5.11-2.11,8.11-0.94
					c2.91,1.15,5.21,3.31,6.95,5.64C87.79,45.8,89.03,48.87,88.4,52.12z"/>
			</g>
			<g>
				<g>
					<path class="st0" d="M131.46,60.17c-2.74-2.02-6.32-2.87-9.82-2.53c-1.81,0.18-3.56,0.79-5.12,1.61
						c-1.63,0.84-3.02,2.19-4.7,2.89c-0.58,0.24-1.2,0.35-1.85,0.4c-1.03-0.07-2.07-0.09-3.09-0.03c-0.43-0.01-0.86-0.01-1.26,0.02
						c-1.8,0.12-3.44,0.48-5,1.29c-1.8,0.94-2.87,2.52-3.63,4.22c-0.68,1.3-1.12,2.72-1.42,4.07c-0.03,0.1-0.04,0.19-0.07,0.3
						c-0.03,0.11-0.07,0.23-0.1,0.34c-0.01,0.04-0.01,0.06,0.01,0.07c-0.38,1.57-0.88,3.09-2.07,4.36c-1.53,1.66-3.9,1.58-6.08,1.74
						c-3.25,0.25-6.1,1.63-8.05,3.95c-1.99,2.38-2.34,5.48-2.05,8.34c0.19,1.86,0.72,3.65,1.07,5.47c0.26,1.38,0.22,2.37-0.88,3.48
						c-0.7,0.71-1.64,1.19-2.4,1.85c-2.62,2.29-4.88,4.72-6.34,7.74c-1.56,3.23-1.71,6.82-1.63,10.3c0.08,3.46,0.23,6.92,0.69,10.36
						c0.01,0.1,0.18-0.03,0.18-0.1c-0.14-1.63-0.23-3.26-0.29-4.9c0.12,1.49,0.14,3,0.29,4.49c0.03,0.38,0.12,1.53,0.83,1.21
						c0.58-0.28,0.63-1.23,0.66-1.73c0.14-1.92,0.55-3.88,0.75-5.81c0.23-2.2,0.42-4.33,2.61-5.71c1.59-1,3.57-1.37,5.04-2.56
						c2.94-2.39,3.28-6.27,6.63-8.36c3.33-2.08,7.83-1.67,11.26-3.52c2.44-1.31,2.3-4.18,2.56-6.37c0.27-2.22,1.13-4.01,3.49-5.02
						c2.12-0.91,4.62-1.19,6.91-1.5c3.35-0.47,6.94-1.04,9.49-3.22c1.04-0.88,1.85-1.89,2.51-3.01c0.89-1.53,1.41-3.2,2.68-4.55
						c1.36-1.45,3.78-1.98,5.62-2.81c1.54-0.7,3.01-1.54,4.23-2.63C137.82,70.12,136.21,63.68,131.46,60.17z"/>
					<path class="st1" d="M68.38,131.46L68.38,131.46c-0.41-0.04-0.61-0.35-0.71-0.72c-0.14-0.02-0.29-0.15-0.3-0.28
						c-0.47-3.54-0.61-7.08-0.69-10.38c-0.08-3.45,0.06-7.11,1.66-10.41c1.28-2.65,3.26-5.07,6.4-7.83
						c0.35-0.31,0.73-0.56,1.09-0.82c0.47-0.33,0.91-0.63,1.29-1.01c1.02-1.02,1.07-1.9,0.81-3.25c-0.12-0.63-0.26-1.26-0.41-1.89
						c-0.27-1.17-0.54-2.38-0.67-3.61c-0.36-3.56,0.36-6.43,2.11-8.54c1.97-2.36,4.91-3.8,8.27-4.06c0.27-0.02,0.55-0.04,0.83-0.06
						c1.95-0.12,3.78-0.23,5.04-1.59c1.13-1.22,1.63-2.73,1.99-4.18c-0.01-0.05-0.01-0.1,0.01-0.15l0.17-0.62
						c0.36-1.61,0.83-2.96,1.44-4.12c0.94-2.11,2.13-3.49,3.75-4.33c1.47-0.77,3.1-1.2,5.12-1.33c0.36-0.02,0.76-0.03,1.3-0.02
						c0.95-0.05,2-0.04,3.11,0.03c0.64-0.05,1.2-0.17,1.69-0.38c0.91-0.38,1.76-0.98,2.58-1.55c0.67-0.47,1.36-0.95,2.09-1.33
						c1.77-0.92,3.54-1.47,5.24-1.65c0.96-0.1,1.92-0.11,2.87-0.02c2.69,0.22,5.18,1.13,7.18,2.61c2.71,2.01,4.42,4.96,4.57,7.89
						c0.14,2.55-0.87,4.84-2.9,6.64c-1.12,1-2.52,1.88-4.31,2.69c-0.53,0.25-1.13,0.47-1.7,0.68c-1.42,0.54-2.89,1.08-3.82,2.07
						c-0.82,0.87-1.31,1.88-1.83,2.94c-0.25,0.52-0.51,1.04-0.8,1.55c-0.71,1.22-1.55,2.22-2.57,3.09c-2.52,2.14-6,2.77-9.65,3.28
						l-0.68,0.1c-2.1,0.29-4.28,0.58-6.14,1.39c-2,0.86-3.02,2.34-3.31,4.8c-0.04,0.32-0.07,0.65-0.09,0.99
						c-0.19,2.06-0.39,4.4-2.61,5.59c-1.68,0.91-3.62,1.28-5.48,1.66c-2,0.39-4.07,0.8-5.76,1.86c-1.74,1.09-2.63,2.66-3.58,4.33
						c-0.8,1.42-1.63,2.88-3.02,4.01c-0.87,0.71-1.91,1.14-2.91,1.55c-0.74,0.31-1.49,0.62-2.16,1.03c-2.04,1.28-2.24,3.3-2.46,5.44
						l-0.01,0.08c-0.08,0.84-0.21,1.7-0.34,2.53c-0.16,1.08-0.33,2.19-0.41,3.27l-0.01,0.06c-0.03,0.58-0.11,1.56-0.82,1.89
						C68.68,131.44,68.53,131.47,68.38,131.46z M67.59,125.17c0.15,0.01,0.27,0.11,0.28,0.25c0.05,0.67,0.08,1.34,0.13,2.01
						c0.04,0.81,0.08,1.66,0.16,2.47c0.09,0.99,0.28,1.01,0.29,1.01c0,0,0.03,0,0.09-0.03c0.41-0.19,0.47-1.04,0.49-1.44l0.01-0.06
						c0.08-1.1,0.25-2.22,0.41-3.31c0.13-0.82,0.25-1.67,0.34-2.51l0.01-0.08c0.22-2.16,0.45-4.4,2.73-5.84
						c0.71-0.45,1.5-0.78,2.25-1.08c1-0.41,1.95-0.8,2.75-1.46c1.31-1.07,2.12-2.49,2.89-3.86c0.93-1.66,1.91-3.36,3.78-4.53
						c1.8-1.12,3.92-1.54,5.99-1.94c1.82-0.36,3.7-0.73,5.29-1.59c1.95-1.04,2.14-3.23,2.31-5.17c0.03-0.34,0.06-0.68,0.1-1
						c0.32-2.67,1.45-4.29,3.66-5.24c1.96-0.84,4.18-1.14,6.32-1.44l0.68-0.1c3.54-0.49,6.92-1.1,9.32-3.14
						c0.97-0.82,1.77-1.79,2.45-2.95c0.29-0.5,0.54-1.01,0.79-1.52c0.52-1.05,1.05-2.14,1.92-3.07c1.02-1.09,2.57-1.66,4.05-2.22
						c0.59-0.22,1.14-0.43,1.66-0.66c1.73-0.78,3.08-1.64,4.16-2.58c1.91-1.69,2.85-3.85,2.73-6.23c-0.14-2.78-1.77-5.59-4.35-7.49
						c-1.91-1.42-4.28-2.27-6.84-2.49c-0.91-0.08-1.83-0.07-2.74,0.02c-1.62,0.16-3.3,0.69-5.01,1.57c-0.7,0.36-1.37,0.83-2.02,1.29
						c-0.85,0.59-1.73,1.22-2.7,1.62c-0.56,0.23-1.19,0.37-1.95,0.43c-1.13-0.07-2.15-0.08-3.1-0.03c-0.53-0.01-0.91-0.01-1.25,0.02
						c-1.93,0.13-3.47,0.53-4.86,1.25c-1.49,0.78-2.61,2.08-3.5,4.08c-0.59,1.15-1.05,2.46-1.41,4.02l-0.16,0.61
						c0,0.03,0,0.07-0.01,0.11c-0.37,1.54-0.89,3.15-2.13,4.48c-1.42,1.54-3.48,1.66-5.47,1.79c-0.27,0.02-0.54,0.04-0.81,0.06
						c-3.18,0.24-5.95,1.61-7.82,3.84c-1.66,1.99-2.33,4.74-1.99,8.16c0.12,1.2,0.39,2.39,0.65,3.55c0.14,0.63,0.29,1.27,0.41,1.91
						c0.28,1.45,0.21,2.54-0.96,3.71c-0.41,0.41-0.9,0.76-1.37,1.08c-0.37,0.26-0.72,0.51-1.04,0.78c-3.09,2.71-5.02,5.06-6.28,7.66
						c-1.55,3.21-1.69,6.78-1.6,10.18c0.04,1.66,0.09,3.37,0.19,5.11c0.02,0,0.03-0.01,0.04-0.01
						C67.56,125.17,67.58,125.17,67.59,125.17z"/>
				</g>
				<path class="st0" d="M101.48,68.99c-1.89,3-1.9,6.67-3.97,9.56c-1.01,1.41-2.41,2.55-4.15,3.21c-2.03,0.75-4.23,1.03-6.26,1.78
					c-1.74,0.64-3.27,1.57-4.01,2.99c0.29-0.25,0.6-0.49,0.97-0.71c3.3-1.9,7.42-2.24,10.93-3.76c4.88-2.11,6.15-6.23,7.7-10.51
					c0.65-1.79,1.42-3.68,2.94-5.05c1.29-1.16,2.87-1.81,4.58-2.15C106.59,64.31,103.32,66.06,101.48,68.99z"/>
				<path class="st0" d="M132.12,60.69c0.01,0.48-0.05,0.95-0.23,1.38c-0.69,1.76-2.44,3.04-4.15,4.03
					c-2.02,1.17-4.18,2.09-6.33,3.02c-2.76,1.22-5.35,2.73-7.88,4.3c-7,4.33-13.48,9.35-19.38,14.83
					c-5.71,5.3-11.13,11.01-15.63,17.17c-3.18,4.34-5.59,9.13-7.43,14.08c0.36-0.61,0.87-1.16,1.6-1.63c1.59-1,3.57-1.37,5.04-2.56
					c2.94-2.39,3.28-6.27,6.63-8.36c3.33-2.08,7.83-1.67,11.26-3.52c2.44-1.31,2.3-4.18,2.56-6.37c0.27-2.22,1.13-4.01,3.49-5.02
					c2.12-0.91,4.62-1.19,6.91-1.5c3.35-0.47,6.94-1.04,9.49-3.22c1.04-0.88,1.85-1.89,2.51-3.01c0.89-1.53,1.41-3.2,2.68-4.55
					c1.36-1.45,3.78-1.98,5.62-2.81c1.54-0.7,3.01-1.54,4.23-2.63C137.59,70.31,136.35,64.29,132.12,60.69z"/>
				<path class="st0" d="M69.31,124.96c-0.53,1.85-0.99,3.73-1.36,5.65c0.1,0.38,0.3,0.73,0.73,0.53c0.58-0.28,0.63-1.23,0.66-1.73
					c0.14-1.92,0.55-3.88,0.75-5.81c0.07-0.66,0.14-1.31,0.25-1.94C69.97,122.74,69.63,123.85,69.31,124.96z"/>
				<path class="st4" d="M122.69,69.33c-11.33,6.67-22.27,13.2-31.97,21.74c-4.42,3.89-8.27,8.08-11.9,12.54
					c-3.51,4.33-6.67,9.17-7.94,14.43c-0.1,0.41,0.41,0.24,0.53-0.01c9.93-21.3,31.68-34.59,51.4-48.25
					C123.05,69.61,123.1,69.09,122.69,69.33z"/>
				<path class="st2" d="M131.46,60.17c-2.74-2.02-6.32-2.87-9.82-2.53c-1.81,0.18-3.56,0.79-5.12,1.61
					c-1.63,0.84-3.02,2.19-4.7,2.89c-0.58,0.24-1.2,0.35-1.85,0.4c-1.03-0.07-2.07-0.09-3.09-0.03c-0.43-0.01-0.86-0.01-1.26,0.02
					c-1.8,0.12-3.44,0.48-5,1.29c-1.8,0.94-2.87,2.52-3.63,4.22c-0.68,1.3-1.12,2.72-1.42,4.07c-0.03,0.1-0.04,0.19-0.07,0.3
					c-0.03,0.11-0.07,0.23-0.1,0.34c-0.01,0.04-0.01,0.06,0.01,0.07c-0.38,1.57-0.88,3.09-2.07,4.36c-1.53,1.66-3.9,1.58-6.08,1.74
					c-3.25,0.25-6.1,1.63-8.05,3.95c-1.99,2.38-2.34,5.48-2.05,8.34c0.19,1.86,0.72,3.65,1.07,5.47c0.26,1.38,0.22,2.37-0.88,3.48
					c-0.7,0.71-1.64,1.19-2.4,1.85c-2.62,2.29-4.88,4.72-6.34,7.74c-1.56,3.23-1.71,6.82-1.63,10.3c0.08,3.46,0.23,6.92,0.69,10.36
					c0.01,0.1,0.18-0.03,0.18-0.1c-0.14-1.63-0.23-3.26-0.29-4.9c0.12,1.49,0.14,3,0.29,4.49c0.03,0.38,0.12,1.53,0.83,1.21
					c0.58-0.28,0.63-1.23,0.66-1.73c0.14-1.92,0.55-3.88,0.75-5.81c0.23-2.2,0.42-4.33,2.61-5.71c1.59-1,3.57-1.37,5.04-2.56
					c2.94-2.39,3.28-6.27,6.63-8.36c3.33-2.08,7.83-1.67,11.26-3.52c2.44-1.31,2.3-4.18,2.56-6.37c0.27-2.22,1.13-4.01,3.49-5.02
					c2.12-0.91,4.62-1.19,6.91-1.5c3.35-0.47,6.94-1.04,9.49-3.22c1.04-0.88,1.85-1.89,2.51-3.01c0.89-1.53,1.41-3.2,2.68-4.55
					c1.36-1.45,3.78-1.98,5.62-2.81c1.54-0.7,3.01-1.54,4.23-2.63C137.82,70.12,136.21,63.68,131.46,60.17z M129.87,71.57
					c-0.84,2.06-2.97,3.16-5.3,3.59c-1.63,0.31-3.54,0.14-4.96,1.03c-1.19,0.75-1.91,1.83-2.46,3c-1.15,2.5-1.96,5.05-4.29,6.93
					c-1.23,0.99-2.68,1.85-4.32,2.19c-1.62,0.33-3.15,0.15-4.79,0.01c-2.58-0.24-4.74,0.2-6.1,2.36c-0.85,1.36-1.3,2.84-1.79,4.33
					c-0.91,2.7-2.24,4.98-5.01,6.5c-2.61,1.43-5.65,2.14-8.64,1.32c-0.12-0.03-0.19-0.17-0.16-0.28c0.97-3.46,3.53-6.42,6.21-9.01
					c2.77-2.67,5.76-5.22,8.8-7.64c7.45-5.93,15.78-10.86,24.18-15.65c-1.63,0.54-3.15,1.33-4.62,2.17c-1.86,1.05-3.75,2.03-5.66,3
					c-3.88,1.99-7.83,4.02-11.39,6.44c-3.66,2.48-7.13,5.22-10.32,8.17c-2.46,2.28-4.28,5.11-7.11,7.06
					c-0.16,0.11-0.45,0.01-0.46-0.18c-0.05-4.06-1.95-8.89,0.96-12.54c2.5-3.13,6.86-2.55,10.35-4.14
					c4.39-1.99,4.22-6.45,5.76-10.05c0.78-1.81,1.7-3.76,3.56-4.94c0.55-0.34,1.09-0.56,1.63-0.71c0.09-0.05,0.19-0.1,0.29-0.13
					c1.73-0.72,3.29-0.51,4.84-0.03c0.06,0,0.13,0,0.19-0.01c0.14-0.01,0.24,0.07,0.28,0.16c0.85,0.3,1.69,0.66,2.57,0.99
					c2.02,0.76,3.49,0.47,5.29-0.54c1.47-0.81,2.85-1.7,4.52-2.12c2.33-0.59,4.99,0.1,6.48,1.82
					C129.97,66.51,130.76,69.37,129.87,71.57z"/>
			</g>
			<g>
				<path class="st5" d="M88.09,144.12c0.39-4.49,0.23-9.01-1.19-13.3c-1.89-5.76-5.42-10.52-10.72-12.37
					c-5.55-1.93-12.87-2.09-17.74,2c-4.6,3.86-7.87,10.81-8.12,17.32c-0.1,2.56,0.11,5.11,0.39,7.65c0.13,1.12,0.26,2.24,0.46,3.35
					c1.07,0.83,2.68,1.16,3.86,1.48c3.14,0.84,6.44,0.77,9.63,0.63c6.21-0.29,12.94,0.16,18.79-2.66
					C85.19,147.36,87.03,145.98,88.09,144.12z"/>
				<path class="st6" d="M61.43,151.19L61.43,151.19c-2.55,0-4.59-0.23-6.44-0.72c-0.16-0.05-0.32-0.09-0.5-0.13
					c-1.1-0.28-2.48-0.63-3.43-1.38c-0.05-0.04-0.08-0.09-0.09-0.15c-0.2-1.13-0.34-2.28-0.46-3.37c-0.25-2.25-0.49-4.93-0.39-7.68
					c0.25-6.56,3.55-13.59,8.2-17.5c2.61-2.2,6.15-3.36,10.22-3.36c2.55,0,5.21,0.46,7.7,1.32c4.91,1.71,8.77,6.15,10.85,12.51
					c1.25,3.83,1.65,8.21,1.2,13.42c0,0.04-0.01,0.07-0.04,0.11c-1.29,2.27-3.51,3.58-4.72,4.17c-4.81,2.31-10.17,2.44-15.37,2.57
					c-1.15,0.03-2.34,0.05-3.48,0.11C63.72,151.14,62.57,151.19,61.43,151.19z M51.37,148.61c0.89,0.66,2.17,0.98,3.22,1.25
					c0.18,0.05,0.34,0.09,0.51,0.14c1.81,0.49,3.82,0.71,6.34,0.71l0,0c1.13,0,2.27-0.05,3.24-0.09c1.15-0.05,2.34-0.08,3.5-0.11
					c5.16-0.13,10.48-0.25,15.21-2.53c1.15-0.56,3.27-1.81,4.5-3.94c0.44-5.17,0.06-9.34-1.18-13.14
					c-2.03-6.21-5.79-10.56-10.58-12.21c-2.45-0.86-5.07-1.31-7.58-1.31c-3.98,0-7.43,1.13-9.97,3.26
					c-4.56,3.83-7.79,10.72-8.03,17.13c-0.1,2.72,0.14,5.37,0.39,7.6C51.05,146.41,51.18,147.53,51.37,148.61z"/>
			</g>
			<path class="st5" d="M54.1,138.99c0.64-3.77,1.65-7.47,3.22-10.88c1.34-2.93,3.02-5.59,4.91-8.07
				C56.4,123.46,52.86,131.65,54.1,138.99z"/>
			<path class="st7" d="M67.96,122.58c-4.78,0.13-9.35,1.14-13.76,3.27c-0.23,0.11-0.42,0.77-0.07,0.6
				c4.37-2.16,8.97-3.3,13.73-3.57C67.98,122.88,68.12,122.58,67.96,122.58z"/>
			<path class="st7" d="M63.46,125.74c-3.14,0.32-6.23,0.76-9.26,1.8c-0.19,0.06-0.36,0.59-0.06,0.49c3.04-0.99,6.07-1.56,9.21-1.95
				C63.48,126.07,63.64,125.72,63.46,125.74z"/>
			<path class="st7" d="M80.66,135.04c-4.76-0.57-9.49-0.18-14.22,0.56c-4.68,0.73-9.39,1.5-13.88,3.23
				c-0.27,0.11-0.53,0.86-0.08,0.71c8.88-2.89,18.75-5.07,28.02-4.19C80.63,135.37,80.81,135.05,80.66,135.04z"/>
			<path class="st7" d="M56.2,140.1c-0.65,0.08-1.31,0.15-1.96,0.24c-0.75,0.1-1.47,0.36-2.22,0.41c-0.16,0.01-0.37,0.44-0.13,0.43
				c0.65-0.01,1.27-0.19,1.91-0.27c0.73-0.1,1.47-0.14,2.21-0.21C56.25,140.69,56.52,140.06,56.2,140.1z"/>
			<path class="st7" d="M85.64,145.11c-4.59,0.31-9.17,0.36-13.73,1.11c-0.11,0.02-0.24,0.31-0.09,0.29
				c4.53-0.57,9.06-0.53,13.61-0.68C85.69,145.81,86,145.08,85.64,145.11z"/>
			<path class="st7" d="M84.98,143.76c-1.85-0.1-3.7-0.15-5.54,0.11c-0.15,0.03-0.34,0.43-0.13,0.41c1.83-0.16,3.64,0.03,5.48,0.11
				C85.02,144.39,85.31,143.78,84.98,143.76z"/>
			<path class="st7" d="M85.03,131.98c-2.91-1.04-5.97-0.97-8.99-0.88c-0.08,0-0.19,0.22-0.07,0.23c2.98,0.1,5.88,0.29,8.77,1.24
				C84.96,132.63,85.29,132.07,85.03,131.98z"/>
			<path class="st8" d="M86.9,130.81c-1.89-5.76-5.42-10.52-10.72-12.37c-3.72-1.29-8.22-1.78-12.26-0.75c1.65,0,3.3,0.56,4.91,1.95
				c3.91,3.37,3.82,10.05,2.57,14.96c-1.29,5.06-4.71,9.17-9.39,10c-4.05,0.72-8.76-1.49-9.72-6.39c-1.01-5.12,1.22-9.73,2.96-14.34
				c-2.86,3.89-4.75,9.01-4.93,13.88c-0.1,2.56,0.11,5.11,0.39,7.65c0.13,1.12,0.26,2.24,0.46,3.35c1.07,0.83,2.68,1.16,3.86,1.48
				c3.14,0.84,6.44,0.77,9.63,0.63c6.21-0.29,12.94,0.16,18.79-2.66c1.72-0.83,3.57-2.22,4.63-4.07
				C88.47,139.63,88.31,135.12,86.9,130.81z"/>
			<path class="st8" d="M86.9,130.81c-1.89-5.76-5.42-10.52-10.72-12.37c-0.99-0.34-2.05-0.63-3.13-0.85
				c1.82,0.95,3.43,2.39,4.52,4.26c2.54,4.32,3.43,9.95,3.63,15.07c0.09,2.51-0.37,4.92-1.74,6.93c-1.33,1.97-3.4,3.16-5.46,3.82
				c-5.38,1.71-11.51,1.2-16.91-0.21c-2.31-0.6-4.83-1.59-6.19-3.96c-0.17-0.29-0.32-0.59-0.45-0.89c0.07,0.93,0.16,1.86,0.27,2.78
				c0.13,1.12,0.26,2.24,0.46,3.35c1.07,0.83,2.68,1.16,3.86,1.48c3.14,0.84,6.44,0.77,9.63,0.63c6.21-0.29,12.94,0.16,18.79-2.66
				c1.72-0.83,3.57-2.22,4.63-4.07C88.47,139.63,88.31,135.12,86.9,130.81z"/>
			<path class="st9" d="M92.04,144.64c0.87-0.74,1.72-1.55,2.49-2.33c2.65-2.66,4.74-4.9,8.05-6.11c3.52-1.27,6.98-2.73,10.58-3.59
				c1.26-0.3,2.53-0.48,3.81-0.59c1.5-0.37,2.98-0.73,4.47-1.13c-5.84-0.05-11.93,0.1-17.46,2.28c-2.49,0.97-4.98,1.88-7.05,3.97
				c-2.49,2.52-4.75,6.09-7.57,8c-3.36,0.72-6.72,1.8-9.99,2.53c-5.05,1.11-10.12,1.73-15.2,0.76c-2.45-0.46-5.26,0.32-7.77,0.17
				c-2.58-0.15-4.98,0.46-7.51,0.83c-2.27-0.94-4.56-1.73-6.93-2.67c-0.86-0.33-1.72-0.59-2.58-0.81c-2.85-2.61-6.5-4.75-9.77-5.94
				c-2.18-0.79-4.39-1.03-6.6-1.11c-1.74,0.12-3.48,0.45-5.2,0.94c3.38,0.51,6.79,0.64,10.15,1.53c2.62,0.69,4.89,2.43,7.21,4.04
				c-5.1-0.11-10.15,1.68-14.9,4.35c3.86,0,7.52-2.91,11.49-2.43c1.79,0.23,3.6,0.58,5.38,1.03c1.29,0.24,2.58,0.59,3.87,1.07
				c1.29,0.39,2.56,0.8,3.83,1.21c0.36,0.12,0.73,0.24,1.09,0.36c2.26,0.54,4.55,0.97,6.75,1.82c1.43,0.55,2.85,1.17,4.26,1.8
				c0.55,0.18,1.09,0.36,1.64,0.55c1.54,0.53,3.13,0.92,4.72,1.34c-3.34-1.69-6.74-3.21-10.05-5.02c-0.68-0.38-1.35-0.71-2.03-1.03
				c1.47,0.02,2.94,0.04,4.42,0.26c2.8,0.42,5.66-0.1,8.43,0.45c4.39,0.86,8.96,0.3,13.34-0.62c5.07-1.07,10.14-2.79,15.23-3.59
				c0.2-0.08,0.41-0.16,0.61-0.24c3.48-1.26,7.11-1.12,10.68-0.77c2.13,0.22,4.27,0.32,6.4,0.27c-4.5-1.14-9.12-1.6-13.69-1.84
				C95.13,144.31,93.59,144.42,92.04,144.64z"/>
		</g>
	</g>
</g>
<g>
	<g>
		<g>
			<g>
				<g>
					<path class="st0" d="M182.56,207.7c-0.54-0.99-0.92-1.96-1.22-3.02c-0.98-3.55-0.97-7.21-2.38-10.69
						c-0.58-1.43-1.44-2.74-2.57-3.87c-0.56-0.56-1.24-1.04-1.89-1.52c-1.25-0.9-2.12-1.69-2.86-2.98
						c-1.96-3.41-2.46-7.28-5.06-10.44c-1.17-1.41-2.52-2.66-3.76-4.01c-1.47-1.61-2.25-3.57-2.9-5.53c-0.58-1.78-1.13-3.51-2-5.2
						c-0.97-1.88-2.1-3.68-3.15-5.53c-3.4-6.01-4.91-13.8-11.39-17.97c-6.28-4.05-14-0.84-18.17,4.11
						c-2.79,3.32-4.12,7.61-3.28,11.59c0.75,2.03,1.97,3.88,3.99,5.22c2.6,1.72,5.98,2.19,8.47,4.04c3.05,2.26,1.4,5.91,2.88,8.75
						c1.5,2.87,4.62,3.57,7.53,4.92c2.74,1.27,3.79,3.91,4.78,6.35c1.22,3.04,2.96,5.88,5.99,7.8c1.9,1.21,3.84,1.7,6.12,2.08
						c1.77,0.29,3.66,0.55,5.29,1.26c2.45,1.07,4.69,2.47,6.46,4.31c2.74,1.76,4.26,4.8,5.43,7.5c0.78,1.79,1.52,3.59,2.27,5.39
						c0.28,1.16,0.84,2.21,1.21,3.34c0.18,0.54,0.05,1.4,0.58,1.78c0.17,0.12,0.37-0.24,0.36-0.34c-0.26-1.74,0.32-3.49,0.14-5.24
						C183.36,209.06,182.93,208.37,182.56,207.7z"/>
					<path class="st1" d="M183.02,215.71L183.02,215.71c-0.09,0-0.19-0.03-0.27-0.09c-0.47-0.33-0.53-0.88-0.59-1.37
						c-0.03-0.2-0.05-0.39-0.1-0.55c-0.15-0.45-0.33-0.9-0.51-1.33c-0.26-0.65-0.53-1.32-0.71-2.03c-0.69-1.68-1.46-3.52-2.25-5.35
						c-1.24-2.84-2.74-5.7-5.32-7.38c-0.02-0.01-0.03-0.03-0.05-0.05c-1.61-1.66-3.75-3.09-6.36-4.24c-1.44-0.63-3.11-0.9-4.72-1.16
						l-0.5-0.08c-2.35-0.39-4.32-0.9-6.24-2.12c-2.67-1.7-4.61-4.22-6.1-7.93c-0.99-2.46-2-4.99-4.62-6.2
						c-0.59-0.28-1.21-0.53-1.8-0.78c-2.38-0.99-4.62-1.9-5.86-4.28c-0.62-1.18-0.71-2.49-0.8-3.75c-0.14-1.87-0.26-3.63-1.99-4.91
						c-1.27-0.94-2.83-1.53-4.34-2.11c-1.41-0.54-2.85-1.08-4.12-1.92c-1.88-1.25-3.23-3-4.09-5.36c-0.85-3.94,0.4-8.35,3.32-11.84
						c3.14-3.74,7.8-6.06,12.16-6.06c2.32,0,4.49,0.63,6.44,1.89c4.67,3,6.79,7.86,8.84,12.54c0.82,1.87,1.66,3.8,2.64,5.53
						c0.36,0.63,0.73,1.25,1.09,1.89c0.7,1.19,1.42,2.42,2.06,3.66c0.84,1.64,1.37,3.26,1.94,4.99l0.08,0.24
						c0.72,2.19,1.47,3.95,2.84,5.43c0.46,0.5,0.94,0.99,1.41,1.47c0.8,0.81,1.62,1.66,2.35,2.55c1.57,1.89,2.39,4.07,3.18,6.17
						c0.54,1.44,1.11,2.93,1.91,4.31c0.74,1.27,1.61,2.05,2.78,2.89l0.08,0.06c0.64,0.46,1.3,0.93,1.85,1.49
						c1.15,1.16,2.03,2.49,2.63,3.95c0.84,2.07,1.18,4.23,1.52,6.32c0.23,1.45,0.47,2.95,0.87,4.4c0.3,1.09,0.69,2.03,1.19,2.97
						l0.1,0.19c0.36,0.63,0.72,1.29,0.8,2.02c0.09,0.86,0,1.72-0.08,2.55c-0.09,0.93-0.19,1.8-0.06,2.68
						c0.03,0.17-0.09,0.39-0.22,0.52C183.25,215.68,183.11,215.71,183.02,215.71z M173.66,197.19c2.7,1.76,4.24,4.7,5.5,7.61
						c0.8,1.83,1.55,3.66,2.27,5.4c0.18,0.71,0.44,1.36,0.69,1.99c0.18,0.44,0.36,0.9,0.52,1.37c0.06,0.19,0.09,0.42,0.12,0.63
						c0.03,0.31,0.08,0.62,0.21,0.84c-0.14-0.9-0.03-1.83,0.06-2.74c0.08-0.8,0.17-1.65,0.08-2.45c-0.07-0.63-0.41-1.23-0.74-1.83
						l-0.11-0.19c-0.53-0.98-0.93-1.95-1.24-3.08c-0.41-1.47-0.65-2.99-0.89-4.45c-0.33-2.06-0.67-4.19-1.48-6.2
						c-0.57-1.4-1.41-2.67-2.51-3.78c-0.52-0.53-1.16-0.99-1.78-1.43l-0.08-0.06c-1.24-0.89-2.15-1.71-2.94-3.06
						c-0.82-1.42-1.39-2.92-1.94-4.38c-0.78-2.06-1.58-4.19-3.09-6.02c-0.72-0.88-1.53-1.71-2.32-2.52
						c-0.48-0.49-0.96-0.99-1.42-1.48c-1.42-1.54-2.21-3.37-2.95-5.63l-0.08-0.24c-0.56-1.71-1.08-3.32-1.91-4.92
						c-0.63-1.22-1.35-2.45-2.04-3.64c-0.37-0.63-0.74-1.25-1.1-1.89c-1-1.76-1.85-3.7-2.67-5.58c-2.02-4.61-4.1-9.38-8.63-12.3
						c-1.84-1.19-3.89-1.78-6.07-1.78c-4.17,0-8.64,2.24-11.66,5.84c-2.82,3.36-4.03,7.62-3.22,11.37c0.82,2.21,2.08,3.88,3.86,5.05
						c1.21,0.8,2.63,1.34,4,1.86c1.54,0.58,3.14,1.2,4.49,2.18c1.93,1.43,2.07,3.4,2.21,5.29c0.09,1.22,0.19,2.47,0.75,3.55
						c1.14,2.18,3.29,3.07,5.56,4.01c0.6,0.25,1.22,0.5,1.83,0.78c2.84,1.32,3.94,4.06,4.91,6.48c1.46,3.63,3.33,6.07,5.89,7.69
						c1.84,1.17,3.73,1.66,6,2.03l0.5,0.08c1.65,0.27,3.35,0.55,4.88,1.21C169.81,194.01,172,195.48,173.66,197.19z"/>
				</g>
				<path class="st0" d="M137.75,161.52c-0.76-2.58-1.84-5.14-4.8-6.35c-0.64-0.26-1.3-0.43-1.97-0.55
					c2.63,1.27,4.62,3.31,5.55,6.12c0.73,2.2,0.95,4.61,2.11,6.69c0.9,1.61,2.24,2.6,3.94,3.19
					C139.45,168.45,138.76,164.96,137.75,161.52z"/>
				<path class="st2" d="M133.94,146.66c3.61,3.81,6.22,7.96,8.63,12.43c3.79,7.04,7.66,14.13,13.72,19.89
					c5.73,5.45,12.73,9.75,17.84,15.71c2.98,3.46,5.51,7.23,7.6,11.2c-0.14-0.39-0.28-0.79-0.4-1.22
					c-0.98-3.55-0.97-7.21-2.38-10.69c-0.58-1.43-1.44-2.74-2.57-3.87c-0.56-0.56-1.24-1.04-1.89-1.52
					c-1.25-0.9-2.12-1.69-2.86-2.98c-1.96-3.41-2.46-7.28-5.06-10.44c-1.17-1.41-2.52-2.66-3.76-4.01c-1.47-1.61-2.25-3.57-2.9-5.53
					c-0.58-1.78-1.13-3.51-2-5.2c-0.97-1.88-2.1-3.68-3.15-5.53c-3.4-6.01-4.91-13.8-11.39-17.97c-5.9-3.8-13.08-1.21-17.37,3.23
					C129.05,141.91,131.69,144.27,133.94,146.66z"/>
				<path class="st3" d="M175.29,195.27c-3.64-5.14-9.84-8.95-14.46-13.38c-4.95-4.76-9.32-10.06-12.69-15.8
					c-3.06-5.22-6.64-10.87-11.81-14.67c-0.11-0.09-0.3,0.2-0.21,0.29c4.62,4.38,7.86,10.32,10.59,15.77
					c2.73,5.43,6.78,10.27,11.26,14.66c4.59,4.52,9.84,8.39,14.65,12.7c5.09,4.55,7.36,10.03,9.8,15.96
					c0.1,0.26,0.45-0.12,0.42-0.28C181.85,204.93,178.62,199.96,175.29,195.27z"/>
				<path class="st0" d="M147.15,175.21c-1.66-2.6-4.8-2.47-7.4-3.82c-2.48-1.29-2.47-4.46-3.54-6.65c0.46,1.92,0.11,4.11,1.08,5.94
					c1.5,2.87,4.62,3.57,7.53,4.92c2.07,0.96,3.17,2.69,4.01,4.53C148.91,178.44,147.83,176.26,147.15,175.21z"/>
				<path class="st0" d="M134.41,161.92c0.27,0.2,0.48,0.41,0.69,0.63c-0.1-0.71-0.3-1.35-0.5-1.71c-1.35-2.5-4.07-3.98-6.75-5.21
					c-1.83-0.83-3.82-1.6-5.34-2.86c-0.2-0.17-0.4-0.35-0.58-0.55c0.01,0.11,0.01,0.23,0.02,0.34c0.01,0.03,0.01,0.06,0.02,0.09
					c0.75,2.03,1.97,3.88,3.99,5.22C128.53,159.61,131.91,160.07,134.41,161.92z"/>
				<path class="st2" d="M182.56,207.7c-0.54-0.99-0.92-1.96-1.22-3.02c-0.98-3.55-0.97-7.21-2.38-10.69
					c-0.58-1.43-1.44-2.74-2.57-3.87c-0.56-0.56-1.24-1.04-1.89-1.52c-1.25-0.9-2.12-1.69-2.86-2.98
					c-1.96-3.41-2.46-7.28-5.06-10.44c-1.17-1.41-2.52-2.66-3.76-4.01c-1.47-1.61-2.25-3.57-2.9-5.53c-0.58-1.78-1.13-3.51-2-5.2
					c-0.97-1.88-2.1-3.68-3.15-5.53c-3.4-6.01-4.91-13.8-11.39-17.97c-6.28-4.05-14-0.84-18.17,4.11c-1.34,1.6-2.35,3.43-2.93,5.33
					c0.3-0.74,0.64-1.44,1.08-2.11c1.36-2.11,3.46-3.94,6.17-4.55c3-0.67,6.26-0.14,8.71,1.58c6.15,4.33,6.53,11.94,10.65,17.44
					c2.03,2.71,5.97,4.02,7.24,7.21c0.55,1.38,0.53,2.81,0.93,4.2c0.35,1.19,1.08,2.23,1.98,3.16c3.1,3.15,8.9,6.06,7.83,10.94
					c-0.03,0.17-0.19,0.27-0.38,0.22c-7.3-1.73-11.87-8.7-15.74-13.91c-2.47-3.33-4.72-6.76-7.03-10.18
					c-2.15-3.2-4.53-6.22-7.64-8.67c0.06,0.08,0.14,0.14,0.19,0.21c4.63,5.47,7,12.01,10.32,18.12c1.46,2.69,3.06,5.57,5.32,7.81
					c1.41,1.4,2.85,2.76,4.14,4.24c1.19,1.37,2.57,2.97,2.81,4.74c0.16,1.16-0.82,2.27-2.21,2.16c-1.74-0.12-3.28-1.29-4.52-2.4
					c0.92,1.2,2.03,2.27,3.42,3.15c1.9,1.21,3.84,1.7,6.12,2.08c1.77,0.29,3.66,0.55,5.29,1.26c2.45,1.07,4.69,2.47,6.46,4.31
					c2.74,1.76,4.26,4.8,5.43,7.5c0.78,1.79,1.52,3.59,2.27,5.39c0.28,1.16,0.84,2.21,1.21,3.34c0.18,0.54,0.05,1.4,0.58,1.78
					c0.17,0.12,0.37-0.24,0.36-0.34c-0.26-1.74,0.32-3.49,0.14-5.24C183.36,209.06,182.93,208.37,182.56,207.7z"/>
			</g>
			<g>
				<g>
					<path class="st0" d="M199.37,125.33c-1.54-4.52-5.44-8.4-10.21-10.39c-3.32-1.39-6.94-1.55-10.29-0.62
						c-3.81,1.69-7.08,4.63-8.78,7.93c-0.59,1.16-1.07,2.39-1.17,3.66c-0.12,1.48,0.37,2.83,0.57,4.29
						c0.16,1.23,0.08,2.66-0.73,3.72c-0.73,0.95-1.86,1.56-2.63,2.48c-2.52,3.04,1.19,6.02,0.4,9.25c-0.64,2.66-3.7,4.46-5.41,6.57
						c-0.48,0.59-0.93,1.21-1.35,1.84c-0.48,0.8-0.97,1.64-1.37,2.51c-0.64,1.46-1.02,3-1.02,4.59c0.03,0.29,0.06,0.56,0.13,0.84
						c0.81,3.41,4.09,5.91,6.55,8.44c1.47,1.5,2.4,3.17,2.9,5.09c0.53,2.04,0.23,4.12,0.19,6.19c-0.06,3.64,1.23,6.73,3.68,9.63
						c1.28,1.52,2.29,2.96,2.82,4.81c0.58,1.99,0.68,4.11,0.85,6.15c0.34,4.07,0.51,8.15,0.97,12.21c0.33,2.85,0.43,6.29,1.74,9.09
						c0.22,1.54,0.7,3.43,1.65,2.67c0.5-0.4,0.6-1.26,0.73-1.82c0.28-1.27,0.13-2.4-0.17-3.66c-0.47-1.98-0.22-3.55,0.43-5.46
						c0.53-1.56,1.01-3.08,1.26-4.7c0.23-1.42,0.04-2.74-0.31-4.11c-0.32-1.25-0.56-2.52-0.85-3.77c0-0.02-0.01-0.04-0.01-0.07
						c0.04-0.07,0.06-0.15,0.07-0.23s-0.08-0.05-0.1,0c-0.16-1.09-0.29-2.18-0.33-3.28c-0.09-2.22,0.34-4.44,0.8-6.61
						c0.82-3.92,1.19-7.89,1.77-11.84c0.58-3.93,2.18-7.69,5.12-10.72c2.32-2.38,5.35-4.33,6.23-7.54c0.88-3.21-1.04-6.58-2.08-9.56
						c-0.64-1.83-1.41-3.51-1.56-5.45c-0.19-2.34,1.09-4.2,2.86-5.81c2.46-2.24,4.96-4.28,6.47-7.18
						C200.63,131.64,200.37,128.25,199.37,125.33z"/>
					<path class="st1" d="M178.45,226.73c-0.47,0-1.14-0.32-1.54-3.05c-1.07-2.32-1.34-5.08-1.58-7.52
						c-0.05-0.55-0.1-1.09-0.16-1.61c-0.3-2.57-0.47-5.2-0.65-7.73c-0.1-1.49-0.2-3-0.33-4.49l-0.06-0.79
						c-0.14-1.77-0.29-3.61-0.78-5.31c-0.52-1.82-1.48-3.2-2.76-4.72c-2.57-3.05-3.79-6.25-3.73-9.8c0.01-0.51,0.03-1.01,0.06-1.53
						c0.08-1.52,0.15-3.1-0.24-4.59c-0.5-1.89-1.42-3.52-2.83-4.97c-0.49-0.5-1.01-1-1.53-1.51c-2.17-2.1-4.42-4.26-5.09-7.06
						c-0.06-0.26-0.1-0.54-0.14-0.88c0-1.54,0.36-3.12,1.05-4.71c0.36-0.77,0.78-1.54,1.38-2.54c0.41-0.64,0.87-1.26,1.36-1.88
						c0.58-0.72,1.33-1.42,2.06-2.09c1.42-1.32,2.9-2.69,3.3-4.38c0.31-1.3-0.14-2.6-0.59-3.86c-0.64-1.79-1.3-3.64,0.25-5.5
						c0.38-0.46,0.85-0.85,1.3-1.22c0.49-0.4,0.96-0.78,1.31-1.25c0.81-1.05,0.81-2.51,0.68-3.54c-0.07-0.48-0.16-0.96-0.25-1.42
						c-0.19-0.94-0.39-1.9-0.31-2.93c0.09-1.15,0.47-2.34,1.19-3.76c1.71-3.33,5.05-6.34,8.93-8.07c3.61-1,7.27-0.76,10.56,0.62
						c4.95,2.07,8.82,6.02,10.38,10.56c1.18,3.45,1.09,6.77-0.25,9.35c-1.34,2.57-3.41,4.44-5.61,6.42
						c-0.3,0.28-0.61,0.55-0.91,0.83c-2.05,1.88-2.93,3.66-2.78,5.6c0.12,1.51,0.62,2.87,1.15,4.3c0.14,0.36,0.27,0.72,0.4,1.09
						c0.21,0.61,0.47,1.23,0.73,1.89c1.02,2.55,2.08,5.2,1.36,7.82c-0.68,2.47-2.6,4.21-4.45,5.9c-0.62,0.56-1.26,1.15-1.84,1.74
						c-2.72,2.8-4.42,6.36-5.04,10.57c-0.19,1.28-0.36,2.55-0.52,3.84c-0.34,2.63-0.69,5.35-1.25,8.01
						c-0.48,2.32-0.88,4.4-0.79,6.55c0.03,0.93,0.14,1.92,0.3,3.03c0.02,0.01,0.03,0.02,0.04,0.03c0.06,0.06,0.1,0.17,0.09,0.24
						c-0.01,0.09-0.03,0.17-0.05,0.25c0.12,0.52,0.22,1,0.32,1.47c0.16,0.75,0.32,1.52,0.52,2.27c0.43,1.66,0.53,2.93,0.32,4.22
						c-0.27,1.71-0.8,3.34-1.28,4.74c-0.61,1.81-0.9,3.33-0.42,5.33c0.27,1.14,0.48,2.37,0.18,3.77l-0.05,0.25
						c-0.12,0.58-0.26,1.31-0.77,1.72C178.86,226.65,178.66,226.73,178.45,226.73z M183.14,114c-1.41,0-2.81,0.19-4.18,0.56
						c-3.71,1.65-6.94,4.56-8.59,7.78c-0.69,1.35-1.06,2.49-1.14,3.57c-0.08,0.96,0.11,1.85,0.3,2.79c0.09,0.47,0.19,0.96,0.26,1.44
						c0.22,1.64-0.04,2.96-0.78,3.91c-0.4,0.52-0.91,0.94-1.41,1.35c-0.45,0.37-0.88,0.72-1.23,1.14c-1.36,1.65-0.77,3.28-0.15,5.01
						c0.47,1.32,0.96,2.7,0.61,4.13c-0.45,1.85-1.98,3.27-3.46,4.65c-0.74,0.69-1.44,1.34-2,2.03c-0.48,0.59-0.92,1.21-1.33,1.82
						c-0.58,0.98-1.01,1.74-1.35,2.48c-0.66,1.52-1,3.03-1,4.49c0.03,0.3,0.07,0.55,0.12,0.78c0.64,2.66,2.82,4.77,4.94,6.8
						c0.53,0.51,1.05,1.01,1.54,1.52c1.47,1.51,2.45,3.22,2.96,5.21c0.41,1.57,0.33,3.19,0.25,4.75c-0.03,0.51-0.05,1.01-0.06,1.51
						c-0.06,3.46,1.09,6.47,3.62,9.45c1.15,1.36,2.3,2.9,2.87,4.91c0.51,1.76,0.65,3.62,0.8,5.41l0.06,0.78
						c0.13,1.49,0.23,3,0.33,4.5c0.17,2.53,0.35,5.15,0.64,7.71c0.06,0.52,0.11,1.06,0.17,1.61c0.24,2.41,0.5,5.15,1.55,7.4
						c0.01,0.02,0.02,0.05,0.02,0.07c0.3,2.13,0.78,2.6,0.93,2.6c0.05,0,0.13-0.04,0.2-0.11c0.36-0.28,0.48-0.93,0.58-1.41
						l0.05-0.26c0.27-1.22,0.13-2.31-0.17-3.55c-0.5-2.11-0.19-3.76,0.44-5.6c0.47-1.38,0.99-2.99,1.25-4.65
						c0.19-1.22,0.1-2.42-0.31-4.02c-0.19-0.77-0.36-1.54-0.53-2.29c-0.11-0.5-0.21-1-0.32-1.48c-0.01-0.04-0.01-0.13,0-0.19
						c-0.03-0.04-0.04-0.08-0.05-0.11c-0.18-1.22-0.29-2.3-0.33-3.31c-0.09-2.2,0.32-4.41,0.8-6.67c0.55-2.64,0.91-5.35,1.24-7.97
						c0.17-1.28,0.33-2.56,0.53-3.85c0.64-4.32,2.39-7.97,5.19-10.86c0.59-0.61,1.24-1.2,1.87-1.77c1.88-1.71,3.66-3.33,4.29-5.66
						c0.68-2.46-0.36-5.02-1.35-7.5c-0.26-0.66-0.52-1.29-0.74-1.91c-0.13-0.36-0.26-0.73-0.39-1.08c-0.54-1.46-1.06-2.85-1.18-4.43
						c-0.17-2.11,0.77-4.03,2.95-6.03c0.3-0.28,0.61-0.55,0.91-0.83c2.15-1.94,4.19-3.78,5.49-6.27c1.72-3.31,0.87-7.03,0.21-8.96
						c-1.5-4.4-5.26-8.22-10.05-10.23C187.16,114.4,185.18,114,183.14,114z"/>
				</g>
				<path class="st0" d="M173.39,134.08c-1.1,1.35-2.7,2.39-3.65,3.84c-1.38,2.11-0.51,4.32,0.3,6.46c0.53,1.4,1.24,2.98,0.78,4.47
					c-0.58,1.92-2.29,3.24-3.85,4.57c-1.89,1.6-4.23,3.48-4.86,5.84c-0.64,2.42,0.86,4,2.63,5.46c-0.88-1.44-1.4-3.05-0.86-4.7
					c0.77-2.37,2.67-4.33,4.69-5.95c1.87-1.5,4.69-3.31,4.85-5.76c0.19-2.86-2.36-4.83-3.35-7.38c-0.86-2.22,0.52-3.89,2.29-5.4
					c1.02-0.86,2.46-1.7,3.21-2.77c0.98-1.4,0.05-2.86-0.9-4.08c-0.3-0.39-0.58-0.78-0.83-1.16c0.08,0.42,0.19,0.84,0.32,1.29
					C174.71,130.69,174.71,132.48,173.39,134.08z"/>
				<path class="st2" d="M199.37,125.33c-1.54-4.52-5.44-8.4-10.21-10.39c-1.1-0.46-2.23-0.78-3.37-0.97
					c0.76,1.73,0.26,3.88-0.22,5.59c-1.09,3.86-2.81,7.57-4.1,11.37c-1.68,4.95-3.1,9.98-3.97,15.09c-2.73,16-3.02,32.36-1.66,48.48
					c0.83,9.89,1.85,19.84,3.82,29.63c0.18-1.13,0.03-2.17-0.24-3.31c-0.47-1.98-0.22-3.55,0.43-5.46c0.53-1.56,1.01-3.08,1.26-4.7
					c0.23-1.42,0.04-2.74-0.31-4.11c-0.32-1.25-0.56-2.52-0.85-3.77c0-0.02-0.01-0.04-0.01-0.07c0.04-0.07,0.06-0.15,0.07-0.23
					s-0.08-0.05-0.1,0c-0.16-1.09-0.29-2.18-0.33-3.28c-0.09-2.22,0.34-4.44,0.8-6.61c0.82-3.92,1.19-7.89,1.77-11.84
					c0.58-3.93,2.18-7.69,5.12-10.72c2.32-2.38,5.35-4.33,6.23-7.54c0.88-3.21-1.04-6.58-2.08-9.56c-0.64-1.83-1.41-3.51-1.56-5.45
					c-0.19-2.34,1.09-4.2,2.86-5.81c2.46-2.24,4.96-4.28,6.47-7.18C200.63,131.64,200.37,128.25,199.37,125.33z"/>
				<path class="st3" d="M183.92,126.43c-2.86,6.78-5.45,13.62-6.99,20.75c-1.66,7.74-1.23,15.56-1.8,23.38
					c-0.51,7.16-1.81,14.12-1.19,21.32c0.68,7.79,1.93,15.75,3.46,23.43c0.13,0.63,0.86-0.06,0.84-0.44
					c-0.54-7.41-1.58-14.76-2.23-22.15c-0.67-7.64,0.47-15.06,1.08-22.66c0.58-7.17,0.1-14.35,1.25-21.5
					c1.21-7.49,3.57-14.85,5.9-22.11C184.36,126.14,184.01,126.21,183.92,126.43z"/>
				<path class="st2" d="M199.37,125.33c-1.54-4.52-5.44-8.4-10.21-10.39c-3.32-1.39-6.94-1.55-10.29-0.62
					c-3.81,1.69-7.08,4.63-8.78,7.93c-0.59,1.16-1.07,2.39-1.17,3.66c-0.12,1.48,0.37,2.83,0.57,4.29c0.16,1.23,0.08,2.66-0.73,3.72
					c-0.73,0.95-1.86,1.56-2.63,2.48c-2.52,3.04,1.19,6.02,0.4,9.25c-0.64,2.66-3.7,4.46-5.41,6.57c-0.48,0.59-0.93,1.21-1.35,1.84
					c-0.48,0.8-0.97,1.64-1.37,2.51c-0.64,1.46-1.02,3-1.02,4.59c0.03,0.29,0.06,0.56,0.13,0.84c0.81,3.41,4.09,5.91,6.55,8.44
					c1.47,1.5,2.4,3.17,2.9,5.09c0.53,2.04,0.23,4.12,0.19,6.19c-0.06,3.64,1.23,6.73,3.68,9.63c1.28,1.52,2.29,2.96,2.82,4.81
					c0.58,1.99,0.68,4.11,0.85,6.15c0.34,4.07,0.51,8.15,0.97,12.21c0.33,2.85,0.43,6.29,1.74,9.09c0.22,1.54,0.7,3.43,1.65,2.67
					c0.5-0.4,0.6-1.26,0.73-1.82c0.28-1.27,0.13-2.4-0.17-3.66c-0.47-1.98-0.22-3.55,0.43-5.46c0.53-1.56,1.01-3.08,1.26-4.7
					c0.23-1.42,0.04-2.74-0.31-4.11c-0.32-1.25-0.56-2.52-0.85-3.77c0-0.02-0.01-0.04-0.01-0.07c0.04-0.07,0.06-0.15,0.07-0.23
					s-0.08-0.05-0.1,0c-0.16-1.09-0.29-2.18-0.33-3.28c-0.09-2.22,0.34-4.44,0.8-6.61c0.82-3.92,1.19-7.89,1.77-11.84
					c0.58-3.93,2.18-7.69,5.12-10.72c2.32-2.38,5.35-4.33,6.23-7.54c0.88-3.21-1.04-6.58-2.08-9.56c-0.64-1.83-1.41-3.51-1.56-5.45
					c-0.19-2.34,1.09-4.2,2.86-5.81c2.46-2.24,4.96-4.28,6.47-7.18C200.63,131.64,200.37,128.25,199.37,125.33z M195.56,130.69
					c-1.19,6.22-11.19,9.02-10.08,15.8c0.5,3.06,2.52,5.73,3.29,8.75c0.75,2.96,1,6.3-0.55,9.1c-1.59,2.89-4.92,4.44-6.73,7.17
					c-1.73,2.61-2.19,5.81-4.46,8.14c-0.15,0.15-0.48,0.15-0.52-0.1c-0.35-2.23-0.17-4.48,0.05-6.72c0.24-2.47,0.32-4.94,0.55-7.41
					c0.45-4.92,1.28-9.78,2.19-14.64c1.7-9.18,3.87-18.29,6.56-27.28c-7.15,7.3-10.43,16.78-10.77,26.38c-0.1,2.79,0,5.59-0.19,8.38
					c-0.18,2.81-0.47,5.61-0.81,8.4c-0.7,5.75-1.52,11.49-1.7,17.28c-0.01,0.26-0.41,0.31-0.54,0.1c-1.35-2.19-3.18-4.48-3.43-7.03
					c-0.17-1.81,0.13-3.69-0.31-5.48c-0.39-1.56-1.33-2.77-2.66-3.83c-2.45-1.95-5.32-3.78-5.79-6.91
					c-0.42-2.81,0.79-5.59,3.04-7.58c2.27-2.01,7.17-4.29,6.43-7.67c-0.53-2.38-2.76-4.84-1.93-7.37c0.85-2.58,3.96-3.89,4.44-6.69
					c0.47-2.75-0.34-5.52,0.66-8.22c0.97-2.59,2.85-4.68,5.35-6.26c0.08-0.05,0.15-0.06,0.23-0.05c2.3-1.49,5.11-2.11,8.11-0.94
					c2.91,1.15,5.21,3.31,6.95,5.64C194.95,124.36,196.19,127.43,195.56,130.69z"/>
			</g>
			<g>
				<g>
					<path class="st0" d="M238.62,138.73c-2.74-2.02-6.32-2.87-9.82-2.53c-1.81,0.18-3.56,0.79-5.12,1.61
						c-1.63,0.84-3.02,2.19-4.7,2.89c-0.58,0.24-1.2,0.35-1.85,0.4c-1.03-0.07-2.07-0.09-3.09-0.03c-0.43-0.01-0.86-0.01-1.26,0.02
						c-1.8,0.12-3.44,0.48-5,1.29c-1.8,0.94-2.87,2.52-3.63,4.22c-0.68,1.3-1.12,2.72-1.42,4.07c-0.03,0.1-0.04,0.19-0.07,0.3
						c-0.03,0.11-0.07,0.23-0.1,0.34c-0.01,0.04-0.01,0.06,0.01,0.07c-0.38,1.57-0.88,3.09-2.07,4.36c-1.53,1.66-3.9,1.58-6.08,1.74
						c-3.25,0.25-6.1,1.63-8.05,3.95c-1.99,2.38-2.34,5.48-2.05,8.34c0.19,1.86,0.72,3.65,1.07,5.47c0.26,1.38,0.22,2.37-0.88,3.48
						c-0.7,0.71-1.64,1.19-2.4,1.85c-2.62,2.29-4.88,4.72-6.34,7.74c-1.56,3.23-1.71,6.82-1.63,10.3c0.08,3.46,0.23,6.92,0.69,10.36
						c0.01,0.1,0.18-0.03,0.18-0.1c-0.14-1.63-0.23-3.26-0.29-4.9c0.12,1.49,0.14,3,0.29,4.49c0.03,0.38,0.12,1.53,0.83,1.21
						c0.58-0.28,0.63-1.23,0.66-1.73c0.14-1.92,0.55-3.88,0.75-5.81c0.23-2.2,0.42-4.33,2.61-5.71c1.59-1,3.57-1.37,5.04-2.56
						c2.94-2.39,3.28-6.27,6.63-8.36c3.33-2.08,7.83-1.67,11.26-3.52c2.44-1.31,2.3-4.18,2.56-6.37c0.27-2.22,1.13-4.01,3.49-5.02
						c2.12-0.91,4.62-1.19,6.91-1.5c3.35-0.47,6.94-1.04,9.49-3.22c1.04-0.88,1.85-1.89,2.51-3.01c0.89-1.53,1.41-3.2,2.68-4.55
						c1.36-1.45,3.78-1.98,5.62-2.81c1.54-0.7,3.01-1.54,4.23-2.63C244.98,148.69,243.37,142.25,238.62,138.73z"/>
					<path class="st1" d="M175.54,210.02L175.54,210.02c-0.41-0.04-0.61-0.35-0.71-0.72c-0.14-0.02-0.29-0.15-0.3-0.28
						c-0.47-3.54-0.61-7.08-0.69-10.38c-0.08-3.45,0.06-7.11,1.66-10.41c1.28-2.65,3.26-5.07,6.4-7.83
						c0.35-0.31,0.73-0.56,1.09-0.82c0.47-0.33,0.91-0.63,1.29-1.01c1.02-1.02,1.07-1.9,0.81-3.25c-0.12-0.63-0.26-1.26-0.41-1.89
						c-0.27-1.17-0.54-2.38-0.67-3.61c-0.36-3.56,0.36-6.43,2.11-8.54c1.97-2.36,4.91-3.8,8.27-4.06c0.27-0.02,0.55-0.04,0.83-0.06
						c1.95-0.12,3.78-0.23,5.04-1.59c1.13-1.22,1.63-2.73,1.99-4.18c-0.01-0.05-0.01-0.1,0.01-0.15l0.17-0.62
						c0.36-1.61,0.83-2.96,1.44-4.12c0.94-2.11,2.13-3.49,3.75-4.33c1.47-0.77,3.1-1.2,5.12-1.33c0.36-0.02,0.76-0.03,1.3-0.02
						c0.95-0.05,2-0.04,3.11,0.03c0.64-0.05,1.2-0.17,1.69-0.38c0.91-0.38,1.76-0.98,2.58-1.55c0.67-0.47,1.36-0.95,2.09-1.33
						c1.77-0.92,3.54-1.47,5.24-1.65c0.96-0.1,1.92-0.11,2.87-0.02c2.69,0.22,5.18,1.13,7.18,2.61c2.71,2.01,4.42,4.96,4.57,7.89
						c0.14,2.55-0.87,4.84-2.9,6.64c-1.12,1-2.52,1.88-4.31,2.69c-0.53,0.25-1.13,0.47-1.7,0.68c-1.42,0.54-2.89,1.08-3.82,2.07
						c-0.82,0.87-1.31,1.88-1.83,2.94c-0.25,0.52-0.51,1.04-0.8,1.55c-0.71,1.22-1.55,2.22-2.57,3.09c-2.52,2.14-6,2.77-9.65,3.28
						l-0.68,0.1c-2.1,0.29-4.28,0.58-6.14,1.39c-2,0.86-3.02,2.34-3.31,4.8c-0.04,0.32-0.07,0.65-0.09,0.99
						c-0.19,2.06-0.39,4.4-2.61,5.59c-1.68,0.91-3.62,1.28-5.48,1.66c-2,0.39-4.07,0.8-5.76,1.86c-1.74,1.09-2.63,2.66-3.58,4.33
						c-0.8,1.42-1.63,2.88-3.02,4.01c-0.87,0.71-1.91,1.14-2.91,1.55c-0.74,0.31-1.49,0.62-2.16,1.03c-2.04,1.28-2.24,3.3-2.46,5.44
						l-0.01,0.08c-0.08,0.84-0.21,1.7-0.34,2.53c-0.16,1.08-0.33,2.19-0.41,3.27l-0.01,0.06c-0.03,0.58-0.11,1.56-0.82,1.89
						C175.84,210,175.68,210.03,175.54,210.02z M174.75,203.73c0.15,0.01,0.27,0.11,0.28,0.25c0.05,0.67,0.08,1.34,0.13,2.01
						c0.04,0.81,0.08,1.66,0.16,2.47c0.09,0.99,0.28,1.01,0.29,1.01c0,0,0.03,0,0.09-0.03c0.41-0.19,0.47-1.04,0.49-1.44l0.01-0.06
						c0.08-1.1,0.25-2.22,0.41-3.31c0.13-0.82,0.25-1.67,0.34-2.51l0.01-0.08c0.22-2.16,0.45-4.4,2.73-5.84
						c0.71-0.45,1.5-0.78,2.25-1.08c1-0.41,1.95-0.8,2.75-1.46c1.31-1.07,2.12-2.49,2.89-3.86c0.93-1.66,1.91-3.36,3.78-4.53
						c1.8-1.12,3.92-1.54,5.99-1.94c1.82-0.36,3.7-0.73,5.29-1.59c1.95-1.04,2.14-3.23,2.31-5.17c0.03-0.34,0.06-0.68,0.1-1
						c0.32-2.67,1.45-4.29,3.66-5.24c1.96-0.84,4.18-1.14,6.32-1.44l0.68-0.1c3.54-0.49,6.92-1.1,9.32-3.14
						c0.97-0.82,1.77-1.79,2.45-2.95c0.29-0.5,0.54-1.01,0.79-1.52c0.52-1.05,1.05-2.14,1.92-3.07c1.02-1.09,2.57-1.66,4.05-2.22
						c0.59-0.22,1.14-0.43,1.66-0.66c1.73-0.78,3.08-1.64,4.16-2.58c1.91-1.69,2.85-3.85,2.73-6.23c-0.14-2.78-1.77-5.59-4.35-7.49
						c-1.91-1.42-4.28-2.27-6.84-2.49c-0.91-0.08-1.83-0.07-2.74,0.02c-1.62,0.16-3.3,0.69-5.01,1.57c-0.7,0.36-1.37,0.83-2.02,1.29
						c-0.85,0.59-1.73,1.22-2.7,1.62c-0.56,0.23-1.19,0.37-1.95,0.43c-1.13-0.07-2.15-0.08-3.1-0.03c-0.53-0.01-0.91-0.01-1.25,0.02
						c-1.93,0.13-3.47,0.53-4.86,1.25c-1.49,0.78-2.61,2.08-3.5,4.08c-0.59,1.15-1.05,2.46-1.41,4.02l-0.16,0.61
						c0,0.03,0,0.07-0.01,0.11c-0.37,1.54-0.89,3.15-2.13,4.48c-1.42,1.54-3.48,1.66-5.47,1.79c-0.27,0.02-0.54,0.04-0.81,0.06
						c-3.18,0.24-5.95,1.61-7.82,3.84c-1.66,1.99-2.33,4.74-1.99,8.16c0.12,1.2,0.39,2.39,0.65,3.55c0.14,0.63,0.29,1.27,0.41,1.91
						c0.28,1.45,0.21,2.54-0.96,3.71c-0.41,0.41-0.9,0.76-1.37,1.08c-0.37,0.26-0.72,0.51-1.04,0.78c-3.09,2.71-5.02,5.06-6.28,7.66
						c-1.55,3.21-1.69,6.78-1.6,10.18c0.04,1.66,0.09,3.37,0.19,5.11c0.02,0,0.03-0.01,0.04-0.01
						C174.72,203.73,174.74,203.73,174.75,203.73z"/>
				</g>
				<path class="st0" d="M208.64,147.56c-1.89,3-1.9,6.67-3.97,9.56c-1.01,1.41-2.41,2.55-4.15,3.21c-2.03,0.75-4.23,1.03-6.26,1.78
					c-1.74,0.64-3.27,1.57-4.01,2.99c0.29-0.25,0.6-0.49,0.97-0.71c3.3-1.9,7.42-2.24,10.93-3.76c4.88-2.11,6.15-6.23,7.7-10.51
					c0.65-1.79,1.42-3.68,2.94-5.05c1.29-1.16,2.87-1.81,4.58-2.15C213.75,142.88,210.48,144.63,208.64,147.56z"/>
				<path class="st0" d="M239.28,139.26c0.01,0.48-0.05,0.95-0.23,1.38c-0.69,1.76-2.44,3.04-4.15,4.03
					c-2.02,1.17-4.18,2.09-6.33,3.02c-2.76,1.22-5.35,2.73-7.88,4.3c-7,4.33-13.48,9.35-19.38,14.83
					c-5.71,5.3-11.13,11.01-15.63,17.17c-3.18,4.34-5.59,9.13-7.43,14.08c0.36-0.61,0.87-1.16,1.6-1.63c1.59-1,3.57-1.37,5.04-2.56
					c2.94-2.39,3.28-6.27,6.63-8.36c3.33-2.08,7.83-1.67,11.26-3.52c2.44-1.31,2.3-4.18,2.56-6.37c0.27-2.22,1.13-4.01,3.49-5.02
					c2.12-0.91,4.62-1.19,6.91-1.5c3.35-0.47,6.94-1.04,9.49-3.22c1.04-0.88,1.85-1.89,2.51-3.01c0.89-1.53,1.41-3.2,2.68-4.55
					c1.36-1.45,3.78-1.98,5.62-2.81c1.54-0.7,3.01-1.54,4.23-2.63C244.75,148.88,243.51,142.86,239.28,139.26z"/>
				<path class="st0" d="M176.47,203.52c-0.53,1.85-0.99,3.73-1.36,5.65c0.1,0.38,0.3,0.73,0.73,0.53c0.58-0.28,0.63-1.23,0.66-1.73
					c0.14-1.92,0.55-3.88,0.75-5.81c0.07-0.66,0.14-1.31,0.25-1.94C177.13,201.3,176.79,202.41,176.47,203.52z"/>
				<path class="st4" d="M229.84,147.89c-11.33,6.67-22.27,13.2-31.97,21.74c-4.42,3.89-8.27,8.08-11.9,12.54
					c-3.51,4.33-6.67,9.17-7.94,14.43c-0.1,0.41,0.41,0.24,0.53-0.01c9.93-21.3,31.68-34.59,51.4-48.25
					C230.21,148.18,230.26,147.65,229.84,147.89z"/>
				<path class="st2" d="M238.62,138.73c-2.74-2.02-6.32-2.87-9.82-2.53c-1.81,0.18-3.56,0.79-5.12,1.61
					c-1.63,0.84-3.02,2.19-4.7,2.89c-0.58,0.24-1.2,0.35-1.85,0.4c-1.03-0.07-2.07-0.09-3.09-0.03c-0.43-0.01-0.86-0.01-1.26,0.02
					c-1.8,0.12-3.44,0.48-5,1.29c-1.8,0.94-2.87,2.52-3.63,4.22c-0.68,1.3-1.12,2.72-1.42,4.07c-0.03,0.1-0.04,0.19-0.07,0.3
					c-0.03,0.11-0.07,0.23-0.1,0.34c-0.01,0.04-0.01,0.06,0.01,0.07c-0.38,1.57-0.88,3.09-2.07,4.36c-1.53,1.66-3.9,1.58-6.08,1.74
					c-3.25,0.25-6.1,1.63-8.05,3.95c-1.99,2.38-2.34,5.48-2.05,8.34c0.19,1.86,0.72,3.65,1.07,5.47c0.26,1.38,0.22,2.37-0.88,3.48
					c-0.7,0.71-1.64,1.19-2.4,1.85c-2.62,2.29-4.88,4.72-6.34,7.74c-1.56,3.23-1.71,6.82-1.63,10.3c0.08,3.46,0.23,6.92,0.69,10.36
					c0.01,0.1,0.18-0.03,0.18-0.1c-0.14-1.63-0.23-3.26-0.29-4.9c0.12,1.49,0.14,3,0.29,4.49c0.03,0.38,0.12,1.53,0.83,1.21
					c0.58-0.28,0.63-1.23,0.66-1.73c0.14-1.92,0.55-3.88,0.75-5.81c0.23-2.2,0.42-4.33,2.61-5.71c1.59-1,3.57-1.37,5.04-2.56
					c2.94-2.39,3.28-6.27,6.63-8.36c3.33-2.08,7.83-1.67,11.26-3.52c2.44-1.31,2.3-4.18,2.56-6.37c0.27-2.22,1.13-4.01,3.49-5.02
					c2.12-0.91,4.62-1.19,6.91-1.5c3.35-0.47,6.94-1.04,9.49-3.22c1.04-0.88,1.85-1.89,2.51-3.01c0.89-1.53,1.41-3.2,2.68-4.55
					c1.36-1.45,3.78-1.98,5.62-2.81c1.54-0.7,3.01-1.54,4.23-2.63C244.98,148.69,243.37,142.25,238.62,138.73z M237.03,150.14
					c-0.84,2.06-2.97,3.16-5.3,3.59c-1.63,0.31-3.54,0.14-4.96,1.03c-1.19,0.75-1.91,1.83-2.46,3c-1.15,2.5-1.96,5.05-4.29,6.93
					c-1.23,0.99-2.68,1.85-4.32,2.19c-1.62,0.33-3.15,0.15-4.79,0.01c-2.58-0.24-4.74,0.2-6.1,2.36c-0.85,1.36-1.3,2.84-1.79,4.33
					c-0.91,2.7-2.24,4.98-5.01,6.5c-2.61,1.43-5.65,2.14-8.64,1.32c-0.12-0.03-0.19-0.17-0.16-0.28c0.97-3.46,3.53-6.42,6.21-9.01
					c2.77-2.67,5.76-5.22,8.8-7.64c7.45-5.93,15.78-10.86,24.18-15.65c-1.63,0.54-3.15,1.33-4.62,2.17c-1.86,1.05-3.75,2.03-5.66,3
					c-3.88,1.99-7.83,4.02-11.39,6.44c-3.66,2.48-7.13,5.22-10.32,8.17c-2.46,2.28-4.28,5.11-7.11,7.06
					c-0.16,0.11-0.45,0.01-0.46-0.18c-0.05-4.06-1.95-8.89,0.96-12.54c2.5-3.13,6.86-2.55,10.35-4.14
					c4.39-1.99,4.22-6.45,5.76-10.05c0.78-1.81,1.7-3.76,3.56-4.94c0.55-0.34,1.09-0.56,1.63-0.71c0.09-0.05,0.19-0.1,0.29-0.13
					c1.73-0.72,3.29-0.51,4.84-0.03c0.06,0,0.13,0,0.19-0.01c0.14-0.01,0.24,0.07,0.28,0.16c0.85,0.3,1.69,0.66,2.57,0.99
					c2.02,0.76,3.49,0.47,5.29-0.54c1.47-0.81,2.85-1.7,4.52-2.12c2.33-0.59,4.99,0.1,6.48,1.82
					C237.13,145.08,237.92,147.94,237.03,150.14z"/>
			</g>
			<g>
				<path class="st5" d="M195.25,222.68c0.39-4.49,0.23-9.01-1.19-13.3c-1.89-5.76-5.42-10.52-10.72-12.37
					c-5.55-1.93-12.87-2.09-17.74,2c-4.6,3.86-7.87,10.81-8.12,17.32c-0.1,2.56,0.11,5.11,0.39,7.65c0.13,1.12,0.26,2.24,0.46,3.35
					c1.07,0.83,2.68,1.16,3.86,1.48c3.14,0.84,6.44,0.77,9.63,0.63c6.21-0.29,12.94,0.16,18.79-2.66
					C192.35,225.92,194.19,224.55,195.25,222.68z"/>
				<path class="st6" d="M168.59,229.75L168.59,229.75c-2.55,0-4.59-0.23-6.44-0.72c-0.16-0.05-0.32-0.09-0.5-0.13
					c-1.1-0.28-2.48-0.63-3.43-1.38c-0.05-0.04-0.08-0.09-0.09-0.15c-0.2-1.13-0.34-2.28-0.46-3.37c-0.25-2.25-0.49-4.93-0.39-7.68
					c0.25-6.56,3.55-13.59,8.2-17.5c2.61-2.2,6.15-3.36,10.22-3.36c2.55,0,5.21,0.46,7.7,1.32c4.91,1.71,8.77,6.15,10.85,12.51
					c1.25,3.83,1.65,8.21,1.2,13.42c0,0.04-0.01,0.07-0.04,0.11c-1.29,2.27-3.51,3.58-4.72,4.17c-4.81,2.31-10.17,2.44-15.37,2.57
					c-1.15,0.03-2.34,0.05-3.48,0.11C170.88,229.71,169.73,229.75,168.59,229.75z M158.53,227.18c0.89,0.66,2.17,0.98,3.22,1.25
					c0.18,0.05,0.34,0.09,0.51,0.14c1.81,0.49,3.82,0.71,6.34,0.71l0,0c1.13,0,2.27-0.05,3.24-0.09c1.15-0.05,2.34-0.08,3.5-0.11
					c5.16-0.13,10.48-0.25,15.21-2.53c1.15-0.56,3.27-1.81,4.5-3.94c0.44-5.17,0.06-9.34-1.18-13.14
					c-2.03-6.21-5.79-10.56-10.58-12.21c-2.45-0.86-5.07-1.31-7.58-1.31c-3.98,0-7.43,1.13-9.97,3.26
					c-4.56,3.83-7.79,10.72-8.03,17.13c-0.1,2.72,0.14,5.37,0.39,7.6C158.21,224.98,158.34,226.09,158.53,227.18z"/>
			</g>
			<path class="st5" d="M161.26,217.56c0.64-3.77,1.65-7.47,3.22-10.88c1.34-2.93,3.02-5.59,4.91-8.07
				C163.56,202.03,160.02,210.22,161.26,217.56z"/>
			<path class="st7" d="M175.12,201.15c-4.78,0.13-9.35,1.14-13.76,3.27c-0.23,0.11-0.42,0.77-0.07,0.6
				c4.37-2.16,8.97-3.3,13.73-3.57C175.14,201.44,175.28,201.15,175.12,201.15z"/>
			<path class="st7" d="M170.62,204.31c-3.14,0.32-6.23,0.76-9.26,1.8c-0.19,0.06-0.36,0.59-0.06,0.49
				c3.04-0.99,6.07-1.56,9.21-1.95C170.64,204.63,170.8,204.29,170.62,204.31z"/>
			<path class="st7" d="M187.82,213.6c-4.76-0.57-9.49-0.18-14.22,0.56c-4.68,0.73-9.39,1.5-13.88,3.23
				c-0.27,0.11-0.53,0.86-0.08,0.71c8.88-2.89,18.75-5.07,28.02-4.19C187.79,213.94,187.97,213.61,187.82,213.6z"/>
			<path class="st7" d="M163.36,218.66c-0.65,0.08-1.31,0.15-1.96,0.24c-0.75,0.1-1.47,0.36-2.22,0.41
				c-0.16,0.01-0.37,0.44-0.13,0.43c0.65-0.01,1.27-0.19,1.91-0.27c0.73-0.1,1.47-0.14,2.21-0.21
				C163.41,219.26,163.68,218.63,163.36,218.66z"/>
			<path class="st7" d="M192.8,223.67c-4.59,0.31-9.17,0.36-13.73,1.11c-0.11,0.02-0.24,0.31-0.09,0.29
				c4.53-0.57,9.06-0.53,13.61-0.68C192.85,224.37,193.16,223.65,192.8,223.67z"/>
			<path class="st7" d="M192.14,222.33c-1.85-0.1-3.7-0.15-5.54,0.11c-0.15,0.03-0.34,0.43-0.13,0.41c1.83-0.16,3.64,0.03,5.48,0.11
				C192.18,222.96,192.47,222.35,192.14,222.33z"/>
			<path class="st7" d="M192.18,210.54c-2.91-1.04-5.97-0.97-8.99-0.88c-0.08,0-0.19,0.22-0.07,0.23c2.98,0.1,5.88,0.29,8.77,1.24
				C192.12,211.2,192.45,210.63,192.18,210.54z"/>
			<path class="st8" d="M194.06,209.38c-1.89-5.76-5.42-10.52-10.72-12.37c-3.72-1.29-8.22-1.78-12.26-0.75
				c1.65,0,3.3,0.56,4.91,1.95c3.91,3.37,3.82,10.05,2.57,14.96c-1.29,5.06-4.71,9.17-9.39,10c-4.05,0.72-8.76-1.49-9.72-6.39
				c-1.01-5.12,1.22-9.73,2.96-14.34c-2.86,3.89-4.75,9.01-4.93,13.88c-0.1,2.56,0.11,5.11,0.39,7.65c0.13,1.12,0.26,2.24,0.46,3.35
				c1.07,0.83,2.68,1.16,3.86,1.48c3.14,0.84,6.44,0.77,9.63,0.63c6.21-0.29,12.94,0.16,18.79-2.66c1.72-0.83,3.57-2.22,4.63-4.07
				C195.63,218.2,195.47,213.68,194.06,209.38z"/>
			<path class="st8" d="M194.06,209.38c-1.89-5.76-5.42-10.52-10.72-12.37c-0.99-0.34-2.05-0.63-3.13-0.85
				c1.82,0.95,3.43,2.39,4.52,4.26c2.54,4.32,3.43,9.95,3.63,15.07c0.09,2.51-0.37,4.92-1.74,6.93c-1.33,1.97-3.4,3.16-5.46,3.82
				c-5.38,1.71-11.51,1.2-16.91-0.21c-2.31-0.6-4.83-1.59-6.19-3.96c-0.17-0.29-0.32-0.59-0.45-0.89c0.07,0.93,0.16,1.86,0.27,2.78
				c0.13,1.12,0.26,2.24,0.46,3.35c1.07,0.83,2.68,1.16,3.86,1.48c3.14,0.84,6.44,0.77,9.63,0.63c6.21-0.29,12.94,0.16,18.79-2.66
				c1.72-0.83,3.57-2.22,4.63-4.07C195.63,218.2,195.47,213.68,194.06,209.38z"/>
			<path class="st9" d="M199.2,223.21c0.87-0.74,1.72-1.55,2.49-2.33c2.65-2.66,4.74-4.9,8.05-6.11c3.52-1.27,6.98-2.73,10.58-3.59
				c1.26-0.3,2.53-0.48,3.81-0.59c1.5-0.37,2.98-0.73,4.47-1.13c-5.84-0.05-11.93,0.1-17.46,2.28c-2.49,0.97-4.98,1.88-7.05,3.97
				c-2.49,2.52-4.75,6.09-7.57,8c-3.36,0.72-6.72,1.8-9.99,2.53c-5.05,1.11-10.12,1.73-15.2,0.76c-2.45-0.46-5.26,0.32-7.77,0.17
				c-2.58-0.15-4.98,0.46-7.51,0.83c-2.27-0.94-4.56-1.73-6.93-2.67c-0.86-0.33-1.72-0.59-2.58-0.81c-2.85-2.61-6.5-4.75-9.77-5.94
				c-2.18-0.79-4.39-1.03-6.6-1.11c-1.74,0.12-3.48,0.45-5.2,0.94c3.38,0.51,6.79,0.64,10.15,1.53c2.62,0.69,4.89,2.43,7.21,4.04
				c-5.1-0.11-10.15,1.68-14.9,4.35c3.86,0,7.52-2.91,11.49-2.43c1.79,0.23,3.6,0.58,5.38,1.03c1.29,0.24,2.58,0.59,3.87,1.07
				c1.29,0.39,2.56,0.8,3.83,1.21c0.36,0.12,0.73,0.24,1.09,0.36c2.26,0.54,4.55,0.97,6.75,1.82c1.43,0.55,2.85,1.17,4.26,1.8
				c0.55,0.18,1.09,0.36,1.64,0.55c1.54,0.53,3.13,0.92,4.72,1.34c-3.34-1.69-6.74-3.21-10.05-5.02c-0.68-0.38-1.35-0.71-2.03-1.03
				c1.47,0.02,2.94,0.04,4.42,0.26c2.8,0.42,5.66-0.1,8.43,0.45c4.39,0.86,8.96,0.3,13.34-0.62c5.07-1.07,10.14-2.79,15.23-3.59
				c0.2-0.08,0.41-0.16,0.61-0.24c3.48-1.26,7.11-1.12,10.68-0.77c2.13,0.22,4.27,0.32,6.4,0.27c-4.5-1.14-9.12-1.6-13.69-1.84
				C202.29,222.87,200.75,222.98,199.2,223.21z"/>
		</g>
	</g>
</g>
</svg>
