<?xml version="1.0" encoding="utf-8"?>
<!-- Generator: Adobe Illustrator 26.0.1, SVG Export Plug-In . SVG Version: 6.00 Build 0)  -->
<svg version="1.1" id="Layer_1" xmlns="http://www.w3.org/2000/svg" xmlns:xlink="http://www.w3.org/1999/xlink" x="0px" y="0px"
	 viewBox="0 0 270 250" style="enable-background:new 0 0 270 250;" xml:space="preserve">
<style type="text/css">
	.st0{fill:#82633A;}
	.st1{fill:#6B460C;}
	.st2{fill:#4C2B02;}
	.st3{fill:#8C5E31;}
	.st4{opacity:0.3;fill:#B78E69;}
	.st5{fill:#C6AC91;}
	.st6{opacity:0.8;fill:#3A1F03;}
	.st7{fill:#375416;}
	.st8{fill:#587F03;}
	.st9{fill:url(#SVGID_1_);}
	.st10{fill:url(#SVGID_00000093173937410635595720000001516186493679014557_);}
	.st11{fill:#7D8214;}
	.st12{fill:url(#SVGID_00000117634778671784423190000004825000067804524704_);}
	.st13{fill:#75A000;}
	.st14{fill:#A5C62C;}
	.st15{fill:url(#SVGID_00000033370986658416860430000014952689902271038389_);}
	.st16{fill:url(#SVGID_00000147910625720653174060000013332633014472398522_);}
	.st17{fill:url(#SVGID_00000116927709647129830700000008633646194740047004_);}
	.st18{fill:url(#SVGID_00000171693262328447895950000016698911004368185997_);}
	.st19{fill:url(#SVGID_00000060722854747717402160000013247809419126564533_);}
	.st20{fill:#91870C;}
	.st21{fill:#87AA07;}
	.st22{fill:#878003;}
	.st23{fill:#565E08;}
	.st24{fill:#90A517;}
	.st25{fill:url(#SVGID_00000029747377051031901790000005027397854381439153_);}
	.st26{fill:#7B8408;}
	.st27{fill:#FFFFFF;}
	.st28{fill:#E59E03;}
</style>
<g>
	<g>
		<path class="st0" d="M51.24,113.09c-0.3-0.72-0.71-1.52-1.37-1.59c-0.57-0.06,2.13,8.69,2.52,9.84c1.06,3.14,2.11,6.27,3.17,9.41
			c4.11,12.19,7.08,24.81,10.33,37.35c3.27,12.6,4.91,25.92,8.43,38.58c0.21,0.76,0.69,1.7,1.32,1.45c1.1-2.72,0.19-5.95-0.65-8.8
			c-4.18-14.18-6.11-29.07-9.87-43.41C61.27,141.28,56.99,126.77,51.24,113.09z"/>
		<g>
			<path class="st1" d="M36.59,77.92c-0.31,0.33-0.56,0.69-0.72,1.06c-0.92,2.24,0.56,5.63,1.14,7.73c0.95,3.4,1.95,6.78,2.99,10.15
				c2.08,6.74,4.29,13.41,6.43,20.12c1.38,4.31,6.52,3.69,8.63,0.53c2.5-3.75-2.11-12.79-3.3-16.93c-1.86-6.48-3.55-13.09-6.17-19.2
				c-0.52-1.21-1.04-2.43-1.79-3.44c-0.75-1.01-1.75-1.81-2.86-1.93C39.72,75.87,37.73,76.71,36.59,77.92z"/>
			<path class="st2" d="M50.22,119.45c-0.29,0.2-0.59,0.33-0.9,0.44c2.01,0.53,4.45-0.45,5.75-2.39c2.5-3.75-2.11-12.79-3.3-16.93
				c-1.86-6.48-3.55-13.09-6.17-19.2c-0.52-1.21-1.04-2.43-1.79-3.44c-0.75-1.01-1.75-1.81-2.86-1.93c-0.02,0-0.05,0-0.07,0
				c2.13,4.71,3.7,9.76,5.15,14.83c1.54,5.35,3.57,10.19,5.23,15.44c0.78,2.48,1.32,4.98,1.33,7.46
				C52.6,115.97,51.82,118.35,50.22,119.45z"/>
			<path class="st3" d="M43.38,80.37c0.2-0.58,0.37-1.41,0.49-2.33c-0.02-0.03-0.04-0.07-0.06-0.1c-0.75-1.01-1.75-1.81-2.86-1.93
				c-1.23-0.13-3.21,0.71-4.36,1.92c-0.31,0.33-0.56,0.69-0.72,1.06c-0.37,0.9-0.35,2-0.16,3.11c0.75,0.75,1.63,1.28,2.58,1.45
				C40.05,83.86,42.67,82.45,43.38,80.37z"/>
			<path class="st4" d="M48.22,111.83c-1.38-3.89-2.41-7.9-3.85-11.83c-1.27-3.47-2.25-6.92-3.44-10.39
				c-0.33-0.97-0.67-1.93-0.92-2.93c-0.73-2.79-0.87-5.74-1-8.66c-1.84,0.98-2,3.08-1.53,5.14c1.36,5.98,3.18,11.78,5.1,17.52
				c1.85,5.51,3.15,11.34,5.74,16.44c0.27,0.54,0.69,1.14,1.19,1.01c0.4-0.1,0.64-0.65,0.62-1.15c-0.02-0.5-0.22-0.96-0.42-1.4
				C49.16,114.34,48.67,113.09,48.22,111.83z"/>
			<path class="st5" d="M37.29,71.29c0.05-0.01,0.11,0.03,0.2,0.14c0.49,0.6,0.7,1.52,0.95,2.34c0.28,0.93,0.67,1.83,1.03,2.71
				c0.2,0.5,0.57,1.25,0.54,1.85c-0.02,0.29-0.13,0.53-0.28,0.69c-0.15,0.16-0.33,0.23-0.52,0.26c-0.84,0.15-1.01-1.3-1.15-2.25
				c-0.17-1.11-0.41-2.22-0.61-3.33C37.41,73.53,36.99,71.37,37.29,71.29z"/>
		</g>
	</g>
	<g>
		<path class="st0" d="M70.12,68.91c-0.27-0.96-0.76-1.67-1.75-1.74c-0.77,2.78,0.4,6.82,0.85,9.71c1.04,6.74,1.66,13.64,2.47,20.45
			c1.86,15.62,3.83,31.03,5.12,46.81c1.96,23.8,3.27,47.66,4.84,71.5c0.06,0.84,0.12,1.72,0.53,2.4c0.4,0.68,1.27,1.02,1.79,0.47
			c0.87-0.9-0.69-11.13-0.8-12.81c-0.32-4.88-0.65-9.75-1-14.63c-0.62-8.61-0.58-17.27-1.21-25.94c-1.39-19.09-3.5-38.09-5.74-57.05
			c-1.48-12.53-3.46-24.95-4.81-37.45C70.35,70.02,70.27,69.43,70.12,68.91z"/>
		<g>
			<path class="st1" d="M58.56,32.1c-0.35,0.28-0.63,0.59-0.83,0.93c-1.16,2.06-0.07,5.68,0.27,7.85c0.56,3.53,1.18,7.04,1.84,10.55
				c1.31,7.02,2.76,14,4.13,20.99c0.88,4.5,6.05,4.73,8.49,1.95c2.9-3.3-0.66-13.02-1.38-17.32c-1.13-6.73-2.06-13.56-3.98-20.04
				c-0.38-1.28-0.77-2.58-1.39-3.71c-0.63-1.13-1.53-2.09-2.62-2.39C61.89,30.59,59.83,31.1,58.56,32.1z"/>
			<path class="st2" d="M67.44,75.51c-0.31,0.15-0.62,0.23-0.94,0.29c1.93,0.86,4.46,0.3,5.96-1.41c2.9-3.3-0.66-13.02-1.38-17.32
				c-1.13-6.73-2.06-13.56-3.98-20.04c-0.38-1.28-0.77-2.58-1.39-3.71c-0.63-1.13-1.53-2.09-2.62-2.39
				c-0.02-0.01-0.05-0.01-0.07-0.01c1.58,5.02,2.58,10.29,3.46,15.54c0.93,5.56,2.41,10.68,3.47,16.17c0.5,2.58,0.76,5.15,0.49,7.61
				C70.19,72.46,69.16,74.69,67.44,75.51z"/>
			<path class="st3" d="M65.02,35.66c0.26-0.54,0.53-1.34,0.74-2.23c-0.02-0.03-0.03-0.07-0.05-0.11c-0.63-1.13-1.53-2.09-2.62-2.39
				c-1.2-0.34-3.26,0.17-4.53,1.17c-0.35,0.28-0.63,0.59-0.83,0.93c-0.47,0.83-0.57,1.92-0.5,3.06c0.66,0.86,1.47,1.54,2.39,1.87
				C61.33,38.57,64.08,37.6,65.02,35.66z"/>
			<path class="st4" d="M66.32,67.63c-0.94-4.08-1.51-8.23-2.5-12.36c-0.87-3.65-1.46-7.22-2.25-10.86
				c-0.22-1.01-0.44-2.02-0.59-3.06c-0.41-2.88-0.22-5.83-0.03-8.75c-1.93,0.66-2.32,2.72-2.09,4.84c0.69,6.15,1.84,12.2,3.1,18.2
				c1.22,5.77,1.86,11.76,3.86,17.24c0.21,0.58,0.55,1.24,1.07,1.2c0.41-0.03,0.71-0.54,0.75-1.04c0.04-0.5-0.11-0.99-0.26-1.46
				C66.96,70.27,66.62,68.95,66.32,67.63z"/>
			<path class="st5" d="M59.99,25.65c0.05-0.01,0.11,0.05,0.19,0.17c0.42,0.67,0.53,1.62,0.68,2.48c0.18,0.97,0.46,1.93,0.71,2.86
				c0.15,0.53,0.42,1.33,0.33,1.92c-0.05,0.28-0.19,0.51-0.35,0.64c-0.17,0.13-0.36,0.17-0.55,0.18c-0.85,0.01-0.85-1.46-0.89-2.42
				c-0.04-1.13-0.16-2.27-0.24-3.4C59.87,27.89,59.69,25.68,59.99,25.65z"/>
		</g>
	</g>
	<g>
		<g>
			<path class="st5" d="M183.38,8.91c0.04,0.03,0.07,0.11,0.07,0.27c0.02,0.84-0.34,1.69-0.61,2.5c-0.31,0.91-0.53,1.9-0.77,2.84
				c-0.13,0.54-0.28,1.38-0.64,1.8c-0.17,0.2-0.39,0.28-0.59,0.27c-0.2-0.01-0.37-0.11-0.53-0.24c-0.7-0.59-0.01-1.79,0.42-2.61
				c0.5-0.95,0.94-1.97,1.41-2.94C182.21,10.65,183.11,8.72,183.38,8.91z"/>
			<path class="st1" d="M179.16,13.17c-0.41-0.02-0.8,0.03-1.12,0.18c-1.93,0.87-2.74,4.58-3.49,6.6c-1.21,3.28-2.36,6.59-3.49,9.91
				c-2.25,6.65-4.37,13.37-6.55,20.05c-1.4,4.3,2.7,8.13,6.01,7.58c3.93-0.65,5.61-11.1,7.06-15.12c2.26-6.29,4.73-12.52,6.22-19.17
				c0.3-1.31,0.59-2.64,0.61-4.01s-0.26-2.78-1.01-3.8C182.59,14.28,180.67,13.24,179.16,13.17z"/>
			<path class="st2" d="M165.9,54.87c-0.32-0.1-0.62-0.25-0.91-0.43c1.17,2.06,3.5,3.39,5.53,3.05c3.93-0.65,5.61-11.1,7.06-15.12
				c2.26-6.29,4.73-12.52,6.22-19.17c0.3-1.31,0.59-2.64,0.61-4.01c0.02-1.36-0.26-2.78-1.01-3.8c-0.01-0.02-0.04-0.04-0.05-0.06
				c-1.08,5.21-2.76,10.21-4.52,15.13c-1.87,5.19-3.09,10.42-4.81,15.65c-0.81,2.46-1.82,4.74-3.2,6.56
				C169.58,54.32,167.68,55.41,165.9,54.87z"/>
			<path class="st4" d="M168.7,47.64c1.17-4,2.65-7.79,3.8-11.86c1.01-3.59,2.23-6.93,3.29-10.46c0.3-0.98,0.59-1.97,0.96-2.91
				c0.63-1.61,1.42-3.08,2.22-4.56c0.54-0.99,1.75-2.35,1.86-3.56c-0.58-0.62-1.5-0.5-2.13,0.02c-2,1.62-3.13,6.54-4.08,9.11
				c-1.38,3.73-2.62,7.53-3.81,11.35c-0.74,2.38-1.61,4.7-2.38,7.07c-0.52,1.59-2.07,4.92-1.8,6.65
				C166.95,50.63,168.46,48.44,168.7,47.64z"/>
			<path class="st6" d="M164.34,50.59c-0.8,4.01,3.05,7.42,6.18,6.91c0.98-0.16,1.82-0.94,2.55-2.07
				C172.18,51.32,167.52,49.39,164.34,50.59z"/>
		</g>
		<path class="st0" d="M154.06,106.62c-1.03,8.29-1.61,16.68-1.57,25.06c0.04,8.14-0.44,16.2,0.22,24.36
			c0.06,0.77,0.19,1.66,0.74,2.04c0.45-0.66,0.49-1.59,0.51-2.44c0.56-22.97,0.71-46.4,5.66-68.75c0.89-4.04,1.65-8.2,2.78-12.14
			c1.08-3.78,2.53-7.5,3.59-11.22c0.84-2.94,2.16-5.62,3.17-8.47c0.09-0.25,0.18-0.52,0.14-0.79c-0.1-0.66-0.91-0.74-1.35-0.34
			c-1.79,1.61-2.73,5.51-3.62,7.88c-0.72,1.92-1.52,3.86-2.11,5.85c-1.8,6.02-3.36,12.15-4.68,18.35
			C156.12,92.77,154.93,99.66,154.06,106.62z"/>
	</g>
	<g>
		<g>
			<path class="st5" d="M235.81,82.96c0.04,0.04,0.05,0.13,0.03,0.28c-0.11,0.83-0.59,1.59-0.99,2.32
				c-0.45,0.83-0.82,1.74-1.19,2.61c-0.21,0.5-0.49,1.3-0.9,1.62c-0.2,0.15-0.43,0.19-0.62,0.13c-0.19-0.06-0.35-0.19-0.48-0.36
				c-0.6-0.74,0.26-1.76,0.81-2.47c0.64-0.82,1.23-1.72,1.84-2.57C234.4,84.41,235.58,82.72,235.81,82.96z"/>
			<path class="st1" d="M231.01,86.18c-0.4-0.11-0.79-0.15-1.12-0.08c-2.02,0.41-3.39,3.88-4.44,5.69
				c-1.69,2.94-3.33,5.93-4.94,8.94c-3.23,6.02-6.33,12.14-9.51,18.21c-2.04,3.9,1.41,8.6,4.74,8.82c3.96,0.26,7.21-9.62,9.25-13.24
				c3.19-5.66,6.56-11.22,9.05-17.41c0.49-1.22,0.99-2.46,1.22-3.8c0.23-1.33,0.17-2.79-0.41-3.96
				C234.21,88.06,232.49,86.6,231.01,86.18z"/>
			<path class="st2" d="M211.6,124.13c-0.3-0.17-0.57-0.39-0.83-0.63c0.83,2.29,2.92,4.13,4.97,4.26c3.96,0.26,7.21-9.62,9.25-13.24
				c3.19-5.66,6.56-11.22,9.05-17.41c0.49-1.22,0.99-2.46,1.22-3.8c0.23-1.33,0.17-2.79-0.41-3.96c-0.01-0.02-0.03-0.05-0.04-0.07
				c-1.86,4.87-4.27,9.41-6.76,13.83c-2.63,4.67-4.63,9.53-7.12,14.27c-1.18,2.23-2.51,4.25-4.14,5.71
				C215.3,124.42,213.27,125.06,211.6,124.13z"/>
			<path class="st4" d="M215.46,117.66c1.76-3.66,3.8-7.04,5.55-10.78c1.54-3.3,3.25-6.3,4.84-9.52c0.44-0.9,0.88-1.8,1.39-2.64
				c0.87-1.43,1.86-2.7,2.87-3.97c0.68-0.85,2.08-1.91,2.37-3.07c-0.47-0.74-1.39-0.83-2.1-0.47c-2.21,1.13-4.08,5.71-5.41,8.02
				c-1.93,3.35-3.73,6.8-5.48,10.28c-1.09,2.17-2.3,4.25-3.42,6.4c-0.76,1.44-2.79,4.36-2.79,6.13
				C213.29,120.2,215.11,118.4,215.46,117.66z"/>
			<path class="st6" d="M210.73,119.56c-1.4,3.76,1.86,7.99,5.01,8.19c0.99,0.06,1.93-0.5,2.82-1.45
				C218.32,122.08,214.04,119.11,210.73,119.56z"/>
		</g>
		<path class="st0" d="M192.05,172.26c-2.28,7.91-4.13,16.02-5.38,24.27c-1.21,8.01-2.92,15.81-3.51,23.98
			c-0.06,0.77-0.07,1.67,0.42,2.18c0.54-0.55,0.72-1.45,0.88-2.28c4.06-22.44,7.8-45.42,16.08-66.24c1.5-3.77,2.88-7.67,4.59-11.29
			c1.64-3.47,3.63-6.79,5.25-10.21c1.27-2.69,2.98-5.03,4.41-7.6c0.13-0.23,0.26-0.47,0.26-0.74c0-0.67-0.78-0.93-1.27-0.64
			c-2.01,1.17-3.52,4.79-4.76,6.91c-1,1.72-2.08,3.44-2.97,5.26c-2.69,5.5-5.16,11.17-7.4,16.96
			C196.2,159.12,193.97,165.62,192.05,172.26z"/>
	</g>
	<g>
		<g>
			<path class="st5" d="M234.92,24.81c0.04,0.04,0.05,0.13,0.02,0.28c-0.13,0.83-0.63,1.56-1.05,2.27c-0.47,0.81-0.87,1.7-1.26,2.56
				c-0.23,0.49-0.53,1.27-0.95,1.58c-0.2,0.14-0.43,0.17-0.62,0.1c-0.19-0.06-0.34-0.21-0.47-0.38c-0.57-0.77,0.32-1.75,0.88-2.43
				c0.66-0.79,1.28-1.66,1.91-2.49C233.47,26.19,234.7,24.56,234.92,24.81z"/>
			<path class="st1" d="M230.03,27.82c-0.4-0.13-0.78-0.18-1.12-0.13c-2.04,0.32-3.51,3.73-4.6,5.49c-1.78,2.87-3.5,5.78-5.2,8.72
				c-3.4,5.88-6.68,11.86-10.03,17.78c-2.15,3.81,1.16,8.66,4.48,9.02c3.95,0.43,7.49-9.31,9.63-12.83
				c3.35-5.52,6.88-10.93,9.55-17.01c0.53-1.2,1.06-2.42,1.33-3.74c0.27-1.32,0.25-2.79-0.29-3.98
				C233.18,29.84,231.49,28.3,230.03,27.82z"/>
			<path class="st2" d="M209.53,64.9c-0.29-0.18-0.56-0.41-0.81-0.66c0.77,2.33,2.8,4.25,4.84,4.47c3.95,0.43,7.49-9.31,9.63-12.83
				c3.35-5.52,6.88-10.93,9.55-17.01c0.53-1.2,1.06-2.42,1.33-3.74c0.27-1.32,0.25-2.78-0.29-3.98c-0.01-0.02-0.03-0.05-0.04-0.07
				c-2,4.79-4.54,9.21-7.16,13.53c-2.76,4.56-4.9,9.33-7.53,13.95c-1.24,2.18-2.63,4.13-4.31,5.53
				C213.22,65.35,211.17,65.91,209.53,64.9z"/>
			<path class="st4" d="M213.57,58.61c1.86-3.58,4-6.87,5.86-10.54c1.64-3.23,3.43-6.15,5.11-9.31c0.47-0.88,0.94-1.76,1.47-2.58
				c0.91-1.4,1.94-2.62,2.99-3.84c0.7-0.82,2.13-1.82,2.46-2.96c-0.45-0.76-1.37-0.89-2.08-0.56c-2.24,1.04-4.24,5.53-5.64,7.78
				c-2.02,3.26-3.92,6.63-5.78,10.04c-1.16,2.12-2.42,4.15-3.61,6.24c-0.8,1.41-2.91,4.24-2.96,6
				C211.33,61.05,213.2,59.33,213.57,58.61z"/>
			<path class="st6" d="M208.8,60.3c-1.5,3.7,1.62,8.06,4.77,8.41c0.98,0.11,1.94-0.42,2.86-1.32
				C216.3,63.14,212.11,59.99,208.8,60.3z"/>
		</g>
		<path class="st0" d="M188.59,112.15c-2.51,7.8-4.59,15.83-6.08,24.02c-1.44,7.95-3.37,15.68-4.21,23.82
			c-0.08,0.77-0.12,1.67,0.35,2.19c0.56-0.52,0.77-1.41,0.94-2.24c4.71-22.25,9.12-45.05,18-65.5c1.61-3.7,3.1-7.54,4.92-11.08
			c1.74-3.39,3.83-6.63,5.54-9.97c1.35-2.64,3.13-4.9,4.63-7.4c0.13-0.22,0.27-0.46,0.28-0.73c0.02-0.67-0.75-0.96-1.25-0.7
			c-2.04,1.08-3.66,4.63-4.96,6.7c-1.05,1.68-2.18,3.35-3.12,5.13c-2.85,5.38-5.48,10.94-7.89,16.63
			C193.12,99.21,190.7,105.6,188.59,112.15z"/>
	</g>
	<g>
		<path class="st0" d="M129.3,84.2c-2.04-11.68-4.84-23.12-9.29-34.07c-0.66-1.63-2.03-5.58-3.57-6.06
			c0.26,2.82,1.63,5.84,2.63,8.39c5.48,13.99,7.92,29.61,10.42,44.68c1.82,10.99,1.84,22.22,4.6,33.01
			c0.81-2.42,0.52-5.16,0.22-7.75C132.79,109.58,131.49,96.75,129.3,84.2z"/>
		<g>
			<path class="st1" d="M103.62,15.69c-0.26,0.31-0.46,0.63-0.58,0.96c-0.71,2,0.71,4.86,1.3,6.65c0.96,2.9,1.97,5.77,3.01,8.64
				c2.07,5.73,4.26,11.39,6.39,17.09c1.37,3.66,5.81,2.81,7.51-0.06c2.02-3.41-2.34-10.98-3.54-14.51
				c-1.88-5.52-3.6-11.16-6.13-16.3c-0.5-1.02-1-2.05-1.69-2.88c-0.69-0.84-1.59-1.47-2.56-1.51
				C106.25,13.72,104.56,14.57,103.62,15.69z"/>
			<path class="st2" d="M117.11,50.95c-0.24,0.19-0.5,0.32-0.77,0.44c1.77,0.34,3.85-0.65,4.9-2.42c2.02-3.41-2.34-10.98-3.54-14.51
				c-1.88-5.52-3.6-11.16-6.13-16.3c-0.5-1.02-1-2.05-1.69-2.88c-0.69-0.84-1.59-1.47-2.56-1.51c-0.02,0-0.04,0-0.06,0
				c2.04,3.96,3.6,8.26,5.07,12.57c1.55,4.55,3.51,8.63,5.16,13.1c0.78,2.1,1.35,4.25,1.46,6.4
				C119.04,47.78,118.46,49.9,117.11,50.95z"/>
			<path class="st3" d="M109.61,17.41c0.15-0.51,0.27-1.25,0.33-2.06c-0.02-0.03-0.04-0.05-0.06-0.08
				c-0.69-0.84-1.59-1.47-2.56-1.51c-1.07-0.04-2.76,0.8-3.71,1.92c-0.26,0.31-0.46,0.63-0.58,0.96c-0.29,0.81-0.22,1.75-0.01,2.71
				c0.68,0.6,1.47,1.02,2.3,1.11C106.86,20.65,109.07,19.26,109.61,17.41z"/>
			<path class="st4" d="M115.08,44.45c-1.36-3.3-2.41-6.72-3.82-10.05c-1.24-2.94-2.23-5.87-3.41-8.82
				c-0.33-0.82-0.65-1.64-0.92-2.49c-0.74-2.38-0.98-4.93-1.21-7.46c-1.56,0.96-1.61,2.79-1.12,4.56
				c1.42,5.11,3.23,10.04,5.13,14.91c1.82,4.68,3.19,9.66,5.64,13.93c0.26,0.45,0.64,0.94,1.08,0.81c0.35-0.11,0.53-0.6,0.5-1.04
				c-0.03-0.43-0.23-0.82-0.42-1.19C115.99,46.57,115.52,45.52,115.08,44.45z"/>
			<path class="st5" d="M103.96,9.89c0.04-0.01,0.1,0.02,0.18,0.11c0.45,0.49,0.67,1.28,0.92,1.98c0.28,0.79,0.66,1.55,1,2.3
				c0.2,0.43,0.54,1.05,0.54,1.57c0,0.25-0.09,0.47-0.21,0.62c-0.12,0.15-0.28,0.22-0.44,0.26c-0.72,0.18-0.93-1.07-1.09-1.89
				c-0.19-0.96-0.44-1.91-0.66-2.85C104.16,11.83,103.7,9.98,103.96,9.89z"/>
		</g>
	</g>
	<g>
		<path class="st0" d="M152.01,171.2c3.51-34.89,11.05-72.96,26.26-103.22c0.28-0.56,0.65-1.18,1.19-1.18
			c0.46-0.01-2.16,6.86-2.53,7.76c-3.43,8.34-7.24,17.08-9.92,25.73c-6.5,20.94-9.72,41.88-11.96,63.98
			c-0.43,4.28-0.8,8.68-2.38,12.53C151.68,175.26,151.82,173.12,152.01,171.2z"/>
		<g>
			<path class="st1" d="M191.87,40.66c0.24,0.29,0.42,0.6,0.52,0.91c0.63,1.88-0.74,4.51-1.31,6.16c-0.94,2.68-1.92,5.33-2.93,7.97
				c-2.02,5.29-4.14,10.51-6.2,15.77c-1.33,3.38-5.45,2.49-7-0.22c-1.83-3.22,2.35-10.18,3.51-13.43c1.83-5.1,3.52-10.31,5.95-15.04
				c0.48-0.94,0.97-1.88,1.62-2.64c0.65-0.76,1.5-1.33,2.41-1.35C189.45,38.77,191.01,39.6,191.87,40.66z"/>
			<path class="st2" d="M178.77,73.19c0.22,0.18,0.46,0.31,0.71,0.43c-1.65,0.28-3.57-0.69-4.52-2.36
				c-1.83-3.22,2.35-10.18,3.51-13.43c1.83-5.1,3.52-10.31,5.95-15.04c0.48-0.94,0.97-1.88,1.62-2.64c0.65-0.76,1.5-1.33,2.41-1.35
				c0.02,0,0.04,0,0.06,0c-1.96,3.64-3.48,7.61-4.91,11.59c-1.51,4.21-3.4,7.96-5.01,12.08c-0.76,1.94-1.32,3.92-1.45,5.92
				C177.02,70.2,177.53,72.18,178.77,73.19z"/>
			<path class="st3" d="M186.26,42.13c-0.13-0.48-0.23-1.17-0.28-1.92c0.02-0.02,0.04-0.05,0.06-0.07c0.65-0.76,1.5-1.33,2.41-1.35
				c1-0.02,2.56,0.81,3.42,1.87c0.24,0.29,0.42,0.6,0.53,0.91c0.26,0.76,0.18,1.64-0.03,2.53c-0.64,0.55-1.38,0.91-2.16,0.98
				C188.78,45.2,186.74,43.86,186.26,42.13z"/>
			<path class="st4" d="M180.77,67.18c1.31-3.04,2.35-6.2,3.71-9.27c1.2-2.71,2.16-5.42,3.3-8.13c0.32-0.75,0.63-1.51,0.89-2.3
				c0.73-2.2,0.99-4.57,1.24-6.92c1.43,0.93,1.46,2.64,0.98,4.27c-1.4,4.73-3.16,9.28-5,13.77c-1.77,4.31-3.11,8.93-5.47,12.85
				c-0.25,0.41-0.61,0.87-1.01,0.73c-0.32-0.11-0.48-0.57-0.45-0.98c0.04-0.4,0.23-0.76,0.41-1.1
				C179.89,69.14,180.34,68.17,180.77,67.18z"/>
			<path class="st5" d="M191.64,35.25c-0.04-0.01-0.09,0.01-0.17,0.09c-0.42,0.45-0.64,1.17-0.89,1.82
				c-0.27,0.73-0.63,1.43-0.97,2.11c-0.19,0.39-0.52,0.96-0.53,1.45c0,0.23,0.08,0.44,0.19,0.58c0.11,0.14,0.26,0.21,0.41,0.25
				c0.67,0.19,0.88-0.98,1.04-1.73c0.19-0.89,0.44-1.77,0.66-2.64C191.43,37.05,191.88,35.34,191.64,35.25z"/>
		</g>
	</g>
	<path class="st7" d="M118.53,226.48c-0.36-0.93-0.64-1.93-0.83-3c-0.33-1.84-0.76-3.65-1.29-5.42c-0.38-1.25-1.68-3.38-1.72-4.64
		c0.19,5.97-0.2,11.97-1.16,17.82c-2.78-12.62-2.45-25.91-2.11-38.97c-2.47,6.46-3.9,13.52-4.19,20.64
		c-0.13,3.21-0.34,6.27-0.93,9.42c-0.59,3.14-2.58,6.31-3.01,9.29c0.68-4.76,0.9-9.61,0.66-14.43c0.39,7.64-6.84,14-11.37,17.09
		c-1.59,1.08-3.44,2.99-2.73,5.04c4.84,0.18,9.62,0.79,14.49,0.79c4.06,0,8.13,0.29,12.18,0.14c5.69-0.21,11.33,0.8,17.07,0.18
		c0.25-0.03,0.54-0.1,0.63-0.38c0.09-0.28-0.1-0.57-0.27-0.79c-1.41-1.82-3.48-5.13-5.79-5.13c-2.32-0.18-4.28-0.83-6.16-2.58
		C120.43,230.09,119.29,228.44,118.53,226.48z"/>
	<path class="st8" d="M101.46,209.1c0.23-0.06,0.46-0.08,0.69-0.07c0.8,0.05,1.53,0.57,2.2,1.12c2.58,2.13,4.74,5.02,6.25,8.34
		c-1.8-1.68-3.95-2.79-6.19-3.21c-0.71-0.13-1.47-0.19-2.12,0.19c-0.79,0.46-1.26,1.45-1.66,2.39c-1.71,3.96-3.04,8.17-4.02,12.48
		c-0.56,2.47-1.33,5.01-1.58,7.54c-0.03,0.29-0.06,0.59-0.2,0.83c-0.2,0.35-0.57,0.47-0.92,0.56c-1.32,0.34-2.66,0.54-4.01,0.59
		c0.23-9.66,3.49-21.45,8.92-28.63C99.55,210.29,100.44,209.36,101.46,209.1z"/>
	<linearGradient id="SVGID_1_" gradientUnits="userSpaceOnUse" x1="145.3008" y1="157.6974" x2="222.2682" y2="157.6974">
		<stop  offset="1.341853e-07" style="stop-color:#4D6700"/>
		<stop  offset="0.0559" style="stop-color:#828D02"/>
		<stop  offset="0.1169" style="stop-color:#B6B204"/>
		<stop  offset="0.1629" style="stop-color:#D6C805"/>
		<stop  offset="0.1883" style="stop-color:#E2D105"/>
		<stop  offset="0.2145" style="stop-color:#C8D105"/>
		<stop  offset="0.2448" style="stop-color:#B2D105"/>
		<stop  offset="0.2806" style="stop-color:#A1D105"/>
		<stop  offset="0.3248" style="stop-color:#96D105"/>
		<stop  offset="0.3869" style="stop-color:#8FD105"/>
		<stop  offset="0.5593" style="stop-color:#8DD105"/>
		<stop  offset="0.6754" style="stop-color:#8FD105"/>
		<stop  offset="0.731" style="stop-color:#97D004"/>
		<stop  offset="0.7738" style="stop-color:#A4CE04"/>
		<stop  offset="0.8099" style="stop-color:#B6CB03"/>
		<stop  offset="0.8416" style="stop-color:#CEC801"/>
		<stop  offset="0.8652" style="stop-color:#E5C500"/>
		<stop  offset="0.9944" style="stop-color:#BF6F00"/>
	</linearGradient>
	<path class="st9" d="M196.74,237.75c1.86-17.13,3.34-34.61,6.26-51.57c0.79-4.57,1-23.17,4.52-24.96c0.78-0.4,1.61,0.35,2.23,1.05
		c4.24,4.78,8.42,9.66,12.52,14.62c-3.03-9.73-7.36-18.84-12.78-26.87c-0.56-0.83-1.3-1.73-2.17-1.55
		c-0.66,0.14-1.11,0.86-1.49,1.53c-11.88,21.3-7.61,48.49-13.87,72.15c-0.35,1.31-1.45,2.9-2.31,2.01
		c0.95-38.01,12.09-74.41,23.09-109.98c-11.32,14.15-17.24,33.52-20.58,52.89c-2.96,17.02-2.84,35.39-7.09,51.97
		c-4.6-17.36-0.64-38.66,3.37-55.74c2.56-10.89,4.21-21.43,7.67-32.19c1.38-4.28,2.77-8.59,4.82-12.44
		c4.53-8.48,11.98-14.07,19.76-17.56c-5,1.79-10,3.59-15,5.38c-12.72,4.56-15.2,22.69-17.84,36.46c-2.88,14.97-5.1,29.73-8.49,44.58
		c-1.11,4.87-3.14,9.41-4.13,14.24c3.31-16.14,6.34-31.98,8.11-48.37c1.84-17.05-0.63-34.18-2.35-51.08
		c-0.78-7.63-2.11-16.14-7.31-20.48c-2.94-2.45-6.62-3.09-10.15-3.66c-6.07-0.98-12.15-1.96-18.22-2.94
		c9.96,9.06,21.4,8.48,26.68,23.94c4.14,12.11,6.24,25.22,6.59,38.31c0.63,23.49-6.24,47.36-14.9,68.18
		c-0.6,1.43-1.63,3.1-2.89,2.66c-0.76-0.26-1.29-1.26-2.08-1.32c-0.81-0.06-1.41,0.88-1.82,1.74c-2.51,5.26-3.98,11.58-4.41,17.63
		c-0.25,3.51-0.62,11.18,2.44,13.03c1.3,0.78,2.8,0.79,4.25,0.79c5.93-0.02,11.85-0.04,17.78-0.06c6.43-0.02,12.84-0.5,19.25-0.3
		c0.09,0,0.18,0,0.25-0.06c0.1-0.08,0.12-0.23,0.13-0.37C196.62,238.83,196.68,238.29,196.74,237.75z"/>
	<g>
		
			<linearGradient id="SVGID_00000147902312499476950760000016080631222312729787_" gradientUnits="userSpaceOnUse" x1="77.854" y1="146.3478" x2="146.3463" y2="146.3478">
			<stop  offset="6.709266e-08" style="stop-color:#658900"/>
			<stop  offset="0.036" style="stop-color:#829A01"/>
			<stop  offset="0.1062" style="stop-color:#B6B803"/>
			<stop  offset="0.1591" style="stop-color:#D6CA05"/>
			<stop  offset="0.1883" style="stop-color:#E2D105"/>
			<stop  offset="0.2145" style="stop-color:#C8D105"/>
			<stop  offset="0.2448" style="stop-color:#B2D105"/>
			<stop  offset="0.2806" style="stop-color:#A1D105"/>
			<stop  offset="0.3248" style="stop-color:#96D105"/>
			<stop  offset="0.3869" style="stop-color:#8FD105"/>
			<stop  offset="0.5593" style="stop-color:#8DD105"/>
			<stop  offset="0.6754" style="stop-color:#8FD105"/>
			<stop  offset="0.731" style="stop-color:#97D004"/>
			<stop  offset="0.7738" style="stop-color:#A4CE04"/>
			<stop  offset="0.8099" style="stop-color:#B6CB03"/>
			<stop  offset="0.8416" style="stop-color:#CEC801"/>
			<stop  offset="0.8652" style="stop-color:#E5C500"/>
			<stop  offset="0.9944" style="stop-color:#BF6F00"/>
		</linearGradient>
		<path style="fill:url(#SVGID_00000147902312499476950760000016080631222312729787_);" d="M126.88,89.36
			c-0.41-4.06-0.87-8.09-1.49-12.07c-0.15-0.93-0.39-1.95-1.06-2.42c-0.46-0.33-1.02-0.32-1.56-0.33
			c-6.03-0.15-11.28-6.69-17.38-5.94c-4.45,0.55-7.13,8.64-9.16,12.57c-1.95,3.78-3.55,7.81-5.49,11.59
			c-4.05,7.88-8.35,15.56-12.88,23.04c6.4-6.8,12.38-14.16,18.21-21.67c5.78-7.46,10.4-15.58,18.77-19.01
			c0.42-0.17,0.91-0.32,1.29-0.04c0.21,0.16,0.35,0.42,0.47,0.68c1.49,3.16,1.76,6.93,1.99,10.57c2.55,40.1,8.78,80.53,19.22,118.77
			c1.24,4.77,2.76,9.32,4.08,14.04c0.7,2.51,2.29,5.14,4.46,5.04c-2.43-18.26-6.84-35.81-9.4-54.01
			c-2.66-18.92-4.87-37.92-7.57-56.83C128.25,105.41,127.68,97.34,126.88,89.36z"/>
		<path class="st11" d="M122.68,128.69c0.2,1.54,0.4,3.08,0.62,4.62c0.1,0.69,0.2,1.39,0.29,2.08c0.24,1.71,0.49,3.43,0.74,5.14
			c0.06,0.39,0.12,0.79,0.18,1.18c0.13,0.89,0.28,1.77,0.42,2.65c0.05,0,0.1-0.02,0.15-0.02c-0.08-0.82-0.17-1.65-0.25-2.47
			c-1.01-10.36-1.65-20.73-2.29-31.13c-0.36-5.81-0.65-11.72,0.29-17.39c0.07-1.92,0.28-3.83,0.72-5.68
			c0.5-2.08,1.55-2.93,2.64-4.56c-0.24-1.95-0.5-3.9-0.81-5.84c-0.15-0.93-0.39-1.95-1.06-2.42c-0.46-0.33-1.02-0.32-1.56-0.33
			c-3.41-0.09-6.57-2.21-9.77-3.91c0.92,2,2.05,3.95,2.99,4.38c0.05,0.02,0.1,0.03,0.14,0.06c0.21,0.16,0.35,0.42,0.47,0.68
			c0.56,1.18,0.95,2.46,1.22,3.77c0.09,0.44,0.17,0.88,0.24,1.33c0.28,1.79,0.41,3.65,0.52,5.46c0.15,2.39,0.32,4.79,0.5,7.18
			c0.06,0.84,0.13,1.69,0.2,2.53c0.12,1.54,0.24,3.08,0.37,4.61c0.09,1.07,0.19,2.13,0.29,3.2c0.12,1.3,0.24,2.61,0.36,3.91
			c0.12,1.2,0.24,2.4,0.36,3.59c0.12,1.16,0.24,2.31,0.36,3.47c0.14,1.3,0.29,2.61,0.44,3.91c0.12,1.03,0.24,2.06,0.36,3.09
			c0.17,1.41,0.34,2.82,0.52,4.23C122.45,126.92,122.57,127.8,122.68,128.69z"/>
		
			<linearGradient id="SVGID_00000042711360321732074600000002292861479962839196_" gradientUnits="userSpaceOnUse" x1="146.5241" y1="168.6872" x2="198.4443" y2="168.6872">
			<stop  offset="6.709266e-08" style="stop-color:#658900"/>
			<stop  offset="0.036" style="stop-color:#829A01"/>
			<stop  offset="0.1062" style="stop-color:#B6B803"/>
			<stop  offset="0.1591" style="stop-color:#D6CA05"/>
			<stop  offset="0.1883" style="stop-color:#E2D105"/>
			<stop  offset="0.2145" style="stop-color:#C8D105"/>
			<stop  offset="0.2448" style="stop-color:#B2D105"/>
			<stop  offset="0.2806" style="stop-color:#A1D105"/>
			<stop  offset="0.3248" style="stop-color:#96D105"/>
			<stop  offset="0.3869" style="stop-color:#8FD105"/>
			<stop  offset="0.5593" style="stop-color:#8DD105"/>
			<stop  offset="0.6754" style="stop-color:#8FD105"/>
			<stop  offset="0.731" style="stop-color:#97D004"/>
			<stop  offset="0.7738" style="stop-color:#A4CE04"/>
			<stop  offset="0.8099" style="stop-color:#B6CB03"/>
			<stop  offset="0.8416" style="stop-color:#CEC801"/>
			<stop  offset="0.8652" style="stop-color:#E5C500"/>
			<stop  offset="0.9944" style="stop-color:#BF6F00"/>
		</linearGradient>
		<path style="fill:url(#SVGID_00000042711360321732074600000002292861479962839196_);" d="M179.65,107.46
			c3.44-10.24,10.26-11.65,18.79-10.34c-15.21,14-21.64,38.19-26.45,60.04c-5.34,24.21-9.94,47.52-11.74,72.41
			c-0.02,0.3-0.04,0.6-0.06,0.9c-0.19,2.59-0.25,5.24-0.65,7.81c-0.07,0.47-0.16,0.93-0.26,1.39c-0.05,0.22-0.11,0.47-0.27,0.59
			c-0.1,0.07-0.22,0.09-0.34,0.1c-3.36,0.28-6.72,0.37-10.09,0.27c-0.5-0.01-1.81,0.11-2.02-0.61c-0.04-0.14-0.04-0.28-0.03-0.43
			c0.04-1.91,0.22-3.81,0.28-5.72c0.05-1.81,0.21-3.61,0.39-5.41c0.29-2.82,0.76-5.62,0.98-8.45c0.61-7.89,1.35-15.77,2.23-23.62
			c1.77-15.69,4.12-31.3,7.2-46.69c1.8-8.99,3.73-17.95,5.71-26.88c0.99-4.49,2-8.98,3.01-13.46c0.75-3.32,0.97-6.63,1.87-9.91
			c0.18-0.64,0.39-1.34,0.88-1.66c0.34-0.23,0.76-0.21,1.15-0.19c2.5,0.15,5.31,0.59,7.65,1.68c-2.38-1.11-8.02,18.97-8.41,20.72
			c-4.27,19.07-7.98,38.09-9.62,57.79c3.44-8.86,5.08-19.57,7.43-28.98C170.77,134.76,175.09,121.03,179.65,107.46z"/>
		<path class="st13" d="M182.89,97.03c6.27-4.11,12.56-8.88,19.12-12.13c6.78-3.36,13.99-5.62,20.18-10.53
			c1.56-1.24,3.26-2.71,5.11-2.38c0.91,0.16,1.72,0.75,2.54,1.28c2.81,1.82,5.89,3,9.04,3.48c-3.2-1.85-6.4-3.71-9.6-5.56
			c-1.05-0.61-2.12-1.22-3.27-1.4c-1.62-0.26-3.23,0.36-4.79,0.97c-13.14,5.16-26.49,9.41-39.33,15.37
			c-4.07,1.89-9.24,3.91-12.44,7.7c-2.59,3.06-2.76,6.38-3.52,10.66c-0.95,5.37-1.1,12.35-2.62,17.31
			C166.86,110.19,174.35,102.63,182.89,97.03z"/>
		<path class="st14" d="M209.35,98.01c0.45-0.13,0.89-0.27,1.34-0.41c11.31-3.53,22.18-8.6,33.64-11.57
			c-1.97,0.51-4.45-0.21-6.54,0.16c-1.93,0.34-3.71,0.17-5.65,0.4c-4.2,0.51-8.4,1-12.59,1.52c-8.23,1.02-16.48,2.25-24.51,4.7
			c-3.93,1.48-7.84,3.37-11.06,6.5c-3.62,3.51-4.85,9.68-6.56,14.67c4.14-4.69,7.12-10.82,13-12.55c3.16-0.93,6.37-0.83,9.58-1.31
			C203.15,99.65,206.27,98.92,209.35,98.01z"/>
		<path class="st13" d="M219.56,88.12c-8.23,1.02-16.48,2.25-24.51,4.7c-3.09,1.16-6.15,2.59-8.89,4.65
			c2.18-0.54,4.74-0.32,6.57-0.6c2.52-0.39,5.05-0.91,7.56-1.48c2.46-0.57,4.92-1.19,7.36-1.79c7.84-1.94,15.62-4.24,23.33-6.86
			C227.17,87.2,223.36,87.64,219.56,88.12z"/>
		<path class="st14" d="M197.75,84.57c-3.58,2.4-7.24,4.6-10.86,6.61c-3.5,1.94-7.09,3.78-10.29,6.4c-3.32,2.72-5.93,6.32-8.49,9.99
			c-0.66,1.76-1.38,3.48-2.23,5.14c-0.18,0.36-0.83,2.18-1.51,4.1c-0.25,1.65-0.56,3.22-0.97,4.64c0.01,0,0.02-0.01,0.03-0.01
			c3.6-11.4,11.02-18.87,19.47-24.41c6.27-4.11,12.56-8.88,19.12-12.13c6.48-3.21,13.36-5.44,19.36-9.94
			C213.24,77.64,205.48,81.07,197.75,84.57z"/>
		
			<linearGradient id="SVGID_00000065072017745628184040000008446642645048520620_" gradientUnits="userSpaceOnUse" x1="42.0948" y1="165.7655" x2="148.8112" y2="165.7655">
			<stop  offset="0" style="stop-color:#FF7300"/>
			<stop  offset="0.0337" style="stop-color:#FC7C00"/>
			<stop  offset="0.0897" style="stop-color:#F49602"/>
			<stop  offset="0.1606" style="stop-color:#E8BF04"/>
			<stop  offset="0.1883" style="stop-color:#E2D105"/>
			<stop  offset="0.3607" style="stop-color:#E0D105"/>
			<stop  offset="0.4228" style="stop-color:#D9D105"/>
			<stop  offset="0.467" style="stop-color:#CED105"/>
			<stop  offset="0.5028" style="stop-color:#BDD105"/>
			<stop  offset="0.5331" style="stop-color:#A7D105"/>
			<stop  offset="0.5593" style="stop-color:#8DD105"/>
			<stop  offset="0.6754" style="stop-color:#8FD105"/>
			<stop  offset="0.731" style="stop-color:#97D004"/>
			<stop  offset="0.7738" style="stop-color:#A4CE04"/>
			<stop  offset="0.8099" style="stop-color:#B6CB03"/>
			<stop  offset="0.8416" style="stop-color:#CEC801"/>
			<stop  offset="0.8652" style="stop-color:#E5C500"/>
			<stop  offset="0.9944" style="stop-color:#BF6F00"/>
		</linearGradient>
		<path style="fill:url(#SVGID_00000065072017745628184040000008446642645048520620_);" d="M42.09,104.36
			c2.62-2.65,5.87-3.7,8.89-5.31c3.54-1.89,7.02-4,10.56-5.92c4.74-2.58,9.29-4.03,14.27-1.51c6.34,3.21,12.34,8.14,17.46,13.8
			c4.05,4.48,7.52,9.68,10.98,14.85c4.85,7.27,10.06,14,13.78,22.2c3.87,8.53,7.17,17.38,10.28,26.35
			c3.91,11.11,8.3,21.95,12.09,33.11c1.96,5.77,3.3,11.22,4.54,17.17c1.05,5.04,2.64,9.94,3.31,15.09c0.19,1.42,1.23,5.12-0.07,6.14
			c-0.27,0.21-0.59,0.27-0.9,0.32c-2.49,0.4-5.04,0.22-7.55,0.42c-2.57,0.21-5.18,0.33-7.67-0.62c-2.96-1.13-5.26-3.56-5.67-7.47
			c-4.57-43.66-23.61-80.29-43.51-116.06c13.95,11,22.71,29.32,30.57,47.18c5.22,11.86,10.28,23.82,15.18,35.89
			c-2.98-15.8-7.46-31-13.72-45.29c-5.34-12.21-9.1-26.03-15.68-37.33c-4.38-7.51-10.49-13.9-17.81-16.13
			c-2.98-0.91-6.07-1.11-9.15-1.14C62.04,99.59,52.11,102.41,42.09,104.36z"/>
		
			<linearGradient id="SVGID_00000009570199412251098080000018221036059544067759_" gradientUnits="userSpaceOnUse" x1="42.0948" y1="122.1203" x2="120.5913" y2="122.1203">
			<stop  offset="0" style="stop-color:#FF7300"/>
			<stop  offset="0.0337" style="stop-color:#FC7C00"/>
			<stop  offset="0.0897" style="stop-color:#F49602"/>
			<stop  offset="0.1606" style="stop-color:#E8BF04"/>
			<stop  offset="0.1883" style="stop-color:#E2D105"/>
			<stop  offset="0.6544" style="stop-color:#E2CF04"/>
			<stop  offset="0.8221" style="stop-color:#E4C801"/>
			<stop  offset="0.8652" style="stop-color:#E5C500"/>
			<stop  offset="0.9944" style="stop-color:#BF6F00"/>
		</linearGradient>
		<path style="fill:url(#SVGID_00000009570199412251098080000018221036059544067759_);" d="M81.4,101.24
			c7.32,2.24,13.43,8.62,17.81,16.13c0.87,1.49,1.68,3.02,2.46,4.59c4.63,4.75,8.47,10.57,12.27,16.34
			c2.22,3.37,4.43,6.73,6.65,10.1c-0.83-1.99-1.69-3.97-2.57-5.93c-3.72-8.2-8.92-14.93-13.78-22.2
			c-3.45-5.17-6.92-10.37-10.98-14.85c-2.05-2.26-4.24-4.4-6.53-6.36c-1.79-0.89-3.57-1.69-5.35-2.29
			c-6.71-2.27-14.08,0.2-20.65,1.94c-3.88,1.1-7.72,2.41-11.61,3.42c-1.39,0.36-3.83,0.62-6.02,1.32c-0.34,0.29-0.68,0.59-1.01,0.92
			c10.01-1.95,19.95-4.77,30.16-4.27C75.32,100.12,78.42,100.33,81.4,101.24z"/>
		
			<linearGradient id="SVGID_00000057138411008641400700000000202272332512118425_" gradientUnits="userSpaceOnUse" x1="64.5909" y1="134.0275" x2="155.5446" y2="134.0275">
			<stop  offset="0" style="stop-color:#FF7300"/>
			<stop  offset="0.0797" style="stop-color:#FC7C00"/>
			<stop  offset="0.2122" style="stop-color:#F49602"/>
			<stop  offset="0.3801" style="stop-color:#E8BF04"/>
			<stop  offset="0.4456" style="stop-color:#E2D105"/>
			<stop  offset="0.4499" style="stop-color:#CCD405"/>
			<stop  offset="0.4575" style="stop-color:#A9D706"/>
			<stop  offset="0.4657" style="stop-color:#8DDA06"/>
			<stop  offset="0.4745" style="stop-color:#77DD07"/>
			<stop  offset="0.4841" style="stop-color:#68DF07"/>
			<stop  offset="0.4952" style="stop-color:#5FE007"/>
			<stop  offset="0.5111" style="stop-color:#5CE007"/>
			<stop  offset="0.6606" style="stop-color:#5EE007"/>
			<stop  offset="0.7144" style="stop-color:#65DE07"/>
			<stop  offset="0.7528" style="stop-color:#70DC06"/>
			<stop  offset="0.7839" style="stop-color:#81D905"/>
			<stop  offset="0.8104" style="stop-color:#97D404"/>
			<stop  offset="0.834" style="stop-color:#B3CF03"/>
			<stop  offset="0.8547" style="stop-color:#D2C901"/>
			<stop  offset="0.8652" style="stop-color:#E5C500"/>
			<stop  offset="0.9944" style="stop-color:#BF6F00"/>
		</linearGradient>
		<path style="fill:url(#SVGID_00000057138411008641400700000000202272332512118425_);" d="M128.71,124.19
			c2.75,19.45,5.49,39.11,7.14,58.75c0.8,9.51,1.65,19.23,1.48,28.77c-0.18,9.65,1.55,19.81,2.45,29.44
			c3.37-0.08,6.73-0.17,10.1-0.25c1.26-0.03,2.63-0.12,3.56-1.16c1-1.13,1.12-2.99,1.15-4.66c0.4-24.58,0.66-49.28,0.87-73.93
			c0.03-3.98,0.07-7.96,0.09-11.94c0.1-18.47-2.69-35.54-9.26-52.3c2.1,17.24,2.4,34.45,2.26,51.84
			c-0.09,11.83,0.46,24.15-0.72,35.9c-1.9-19.42-2.1-38.71-2.55-58.22c-0.37-16.12-0.77-32.49-4.68-47.9
			c-2.54-10.03-6.34-18.31-11-26.96c-2.19-4.06-3.67-8.62-5.28-13.06c-1.27-3.51-4.26-8.04-4.91-11.63
			c2.29,12.64,5.68,24.33,9.88,36.15c4.84,13.64,7.53,28.14,9.09,42.84c1.37,7.12,0.95,15.25,1.08,22.52
			c0,7.45,0.84,13.79-0.12,21.19c-1.29-10.92-1.74-21.97-3.06-32.85c-1-8.21-2.8-17.05-7.15-23.65
			c-4.8-7.27-12.85-10.07-19.93-12.42c-9.28-3.08-15.78-2.13-24.19,3.33c-8.65,5.61-17.47,13.09-20.42,24.5
			c5.65-8.15,13.81-12.93,21.72-17.47c3.29-1.89,6.64-3.8,10.23-4.47c5.05-0.93,10.16,0.66,15.1,2.25c3.02,0.97,6.18,2.03,8.4,4.71
			c4.65,5.6,6.61,16.06,7.65,23.51C128.04,119.41,128.38,121.8,128.71,124.19z"/>
		<path class="st13" d="M127.7,117.03c0.34,2.38,0.67,4.77,1.01,7.16c0.9,6.38,1.8,12.78,2.66,19.2c4,16.4,6.86,33.24,9.22,50.22
			c-0.56-14.91-1.06-29.82-1.18-44.75c-0.03,0.25-0.04,0.48-0.08,0.73c-1.29-10.92-1.74-21.97-3.06-32.85
			c-1-8.21-2.8-17.05-7.15-23.65c-4.8-7.27-12.85-10.07-19.93-12.42c-9.28-3.08-15.78-2.13-24.19,3.33
			c-8.65,5.61-17.47,13.09-20.42,24.5c5.65-8.15,13.81-12.93,21.72-17.47c3.29-1.89,6.64-3.8,10.23-4.47
			c5.05-0.93,10.16,0.66,15.1,2.25c3.02,0.97,6.18,2.03,8.4,4.71C124.7,99.12,126.65,109.58,127.7,117.03z"/>
		
			<linearGradient id="SVGID_00000011727218617331927320000009029741197250036634_" gradientUnits="userSpaceOnUse" x1="98.1556" y1="90.462" x2="155.381" y2="90.462">
			<stop  offset="0" style="stop-color:#FF7300"/>
			<stop  offset="0.0279" style="stop-color:#FC7C00"/>
			<stop  offset="0.0744" style="stop-color:#F49602"/>
			<stop  offset="0.1332" style="stop-color:#E8BF04"/>
			<stop  offset="0.1562" style="stop-color:#E2D105"/>
			<stop  offset="0.495" style="stop-color:#5CE007"/>
			<stop  offset="0.8652" style="stop-color:#E5C500"/>
			<stop  offset="0.9944" style="stop-color:#BF6F00"/>
		</linearGradient>
		<path style="fill:url(#SVGID_00000011727218617331927320000009029741197250036634_);" d="M129.47,74.23
			c1.71,1.92,3.31,3.97,4.74,6.22c1.57,2.48,3.07,5.03,4.51,7.64c2.73,4.97,5.21,10.16,7.4,15.53c4.34,10.65,6.1,21.9,9.27,33.11
			c-0.78-15.79-0.68-30.38-6.4-44.91c-8.03-20.38-24.87-36.41-42.42-43.08c-2.95-1.12-6.07-2.06-8.41-4.52
			c5.2,5.46,9.98,11.17,15.64,15.97C118.98,64.57,124.67,68.86,129.47,74.23z"/>
		
			<linearGradient id="SVGID_00000071551811639573708870000014887819221979536297_" gradientUnits="userSpaceOnUse" x1="76.1969" y1="98.9843" x2="136.5145" y2="98.9843">
			<stop  offset="0" style="stop-color:#FF7300"/>
			<stop  offset="0.0279" style="stop-color:#FC7C00"/>
			<stop  offset="0.0744" style="stop-color:#F49602"/>
			<stop  offset="0.1332" style="stop-color:#E8BF04"/>
			<stop  offset="0.1562" style="stop-color:#E2D105"/>
			<stop  offset="0.8652" style="stop-color:#E5C500"/>
			<stop  offset="0.9944" style="stop-color:#BF6F00"/>
		</linearGradient>
		<path style="fill:url(#SVGID_00000071551811639573708870000014887819221979536297_);" d="M136.17,119.03c0.11-0.01,0.23,0,0.35,0
			c-0.08-0.76-0.15-1.53-0.25-2.29c-1-8.21-2.8-17.05-7.15-23.65c-4.8-7.27-12.85-10.07-19.93-12.42
			c-9.28-3.08-15.78-2.13-24.19,3.33c-3,1.95-6.02,4.13-8.81,6.61c0.53-0.04,0.98-0.09,1.3-0.17c2.11-0.53,4.16-1.34,6.25-1.93
			c3.39-0.94,6.17-2.26,9.47-3.65c7.14-3,14.75-1.2,21.82,1.38c4.41,1.61,9.56,5.97,12.41,10.36c1.49,2.29,2.78,4.81,3.84,7.48
			c2.46,3.98,3.74,9.72,4.65,13.85C136.02,118.3,136.09,118.67,136.17,119.03z"/>
		<path class="st7" d="M146.93,219.92c0.01-0.29,0.02-0.59,0.03-0.88c-0.01,0.1-0.02,0.19-0.03,0.29
			c-0.13-12.13,0.69-24.13,1.02-36.18c-0.04,0.5-0.07,1.01-0.12,1.5c-1.9-19.42-2.1-38.71-2.55-58.22
			c-0.04-1.52-0.07-3.03-0.11-4.55c-0.12-1.17-0.23-2.35-0.35-3.52c-4.8,40.56-3.16,81.75-1.04,122.69l3.59-0.09
			C146.94,233.96,146.78,226.91,146.93,219.92z"/>
		<path class="st7" d="M163.08,167.22c-0.91,3.67-1.95,7.24-3.24,10.56c0.17-2.01,0.37-4,0.58-6c-3.65,21.05-6.23,42.37-9.38,63.5
			c1.52-24.8,3.82-49.75,4.54-74.59c-0.13,0.64-0.25,1.28-0.37,1.92c-0.37,2.14-0.73,4.29-1.07,6.43
			c-1.74,12.08-2.25,24.8-3.24,36.8c-0.95,11.58-1.73,23.17-2.35,34.78c0.01,0,0.02,0,0.03,0c2.29,0.07,4.58,0.04,6.87-0.07
			c0.26-13.23,0.97-26.5,2.51-39.52c1.1-9.23,2.88-18.32,4.37-27.46C162.66,171.52,162.89,169.39,163.08,167.22z"/>
	</g>
	<path class="st8" d="M197.89,190.58c-0.02,0.18-0.04,0.35-0.05,0.53c-0.78,7.7-2.13,15.69-2.23,23.44
		c-0.06,4.51-0.68,8.96-1.14,13.43c-0.46,4.23-0.73,8.58-0.94,12.81c0,0.06-0.01,0.13-0.04,0.17c-0.04,0.04-0.09,0.04-0.13,0.04
		c-2.13-0.07-4.27-0.13-6.4-0.2c-0.06-1.43,0.02-2.87-0.02-4.31c-0.04-1.47-0.05-2.94-0.05-4.41c-0.01-5.87,0.22-11.74,0.24-17.61
		c0.01-1.7,0-3.4-0.04-5.1c-0.22-10.51,0.7-21.28,1.96-31.65c2.56-21.17,7.62-41.84,15-61.05C202.89,141.4,200.4,166,197.89,190.58z
		"/>
	<path class="st20" d="M172.88,166.15c0.25,0.33,0.51,0.67,0.76,1c1.98,2.63,3.93,5.29,5.86,7.98c6,8.35,8.72,19.31,10.08,30.09
		c1.47,11.66,1.96,23.91,2.01,35.7c0,0.54-8.82-0.27-9.42-0.33c-0.41-9.04-0.13-18.27-0.25-27.38c-0.18-13.02-2.83-27.48-8.97-38.38
		c-2.52-4.46-5.29-8.71-8.29-12.71c-1.5-2-3.06-3.93-4.67-5.79c-1.05-1.22-3.22-4.62-4.63-5.01
		C162.41,153.26,167.94,159.66,172.88,166.15z"/>
	<path class="st14" d="M171.09,210.91c-0.41,9.96-0.35,19.58-0.3,29.56c0.27,0.01,4.76-0.07,6.74,0.1
		c0.07-13.04,1.43-26.12,1.12-39.21c-0.27-12.98-1.71-25.92-4.3-38.51c-2.09-10.16-5.2-20.62-11.78-27.35
		c6.08,6.23,7.26,29.63,8.02,38.6C171.65,186.32,171.59,198.65,171.09,210.91z"/>
	<path class="st21" d="M186.08,177.66c2.56-10.56,6.57-21.57,14.44-26.96c3.13,13.11,6.27,26.23,9.4,39.34
		c-0.86-3.61-4.81-7.98-6.41-11.4c-1.81-3.87-3.75-7.8-5.42-11.68c-5.86,5.68-8.43,14.98-10.31,23.49
		c-1.23,5.57-2.37,11.18-3.27,16.84c-0.86,5.37-1.09,11.02-1.48,16.46c-0.25,3.41-0.39,6.83-0.5,10.25
		c-0.06,1.77-0.1,3.54-0.15,5.31c-0.02,0.79,0.11,1.16-0.49,1.32c-0.55,0.15-1.35-0.04-1.93-0.04c0.64-9.61,0.68-19.23,1.26-28.84
		C181.91,200.25,183.39,188.74,186.08,177.66z"/>
	<path class="st14" d="M140.76,186.92c-4.43,8.26-6.16,18.2-10.2,26.79c1.35-12.69,3.68-24.8,7.62-36.83
		c0.68-2.06,1.69-8.18,3.89-4.75c1.07,1.67,1.52,4.2,2.01,6.15c0.82,3.29,1.57,6.59,2.26,9.92c2.25,10.87,3.48,21.59,4.28,32.68
		c0.07,0.98,0.14,1.96,0.21,2.93c0.15,2.06,0.28,4.12,0.41,6.17c0.14,2.19,0.26,4.39,0.35,6.59c0.03,0.86,0.06,1.72,0.07,2.58
		c0,0.32,0,0.64,0,0.96c-0.01,0.37-0.04,0.74-0.04,1.11c0,0.03,0,0.06-0.02,0.08c-0.02,0.02-0.05,0.03-0.08,0.03
		c-0.97,0.03-1.95,0.16-2.91,0.16c-0.63,0-1.29-0.04-1.92,0.04c-0.06,0.01-0.11,0.01-0.16-0.02c-0.18-0.11-0.05-0.96-0.06-1.18
		c-0.04-0.76-0.08-1.53-0.1-2.29c-0.09-3.95-0.22-7.89-0.4-11.83c-0.18-3.94-0.4-7.89-0.67-11.83c-0.27-3.94-0.59-7.87-0.97-11.8
		c-0.35-3.63-0.77-7.24-1.23-10.85c-0.12-0.95-1.4-6.41-1.08-6.99C141.58,185.44,141.16,186.17,140.76,186.92z"/>
	<g>
		<g>
			<path class="st22" d="M75.5,202.95c0.28-6.42,1.43-12.75,1.54-19.33c0.14-8.39,0.16-16.84-1.03-25.1
				c-1.19-8.26-3.68-16.41-8.07-22.86c3.89,4.35,7.63,9.1,9.9,14.92c3.35,8.61,4.52,19.27,5.12,28.67
				c0.95-4.08,1.41-8.29,2.34-12.37c2.57-11.26,6.09-21.08,11.29-30.97c3.75-7.14,5.67,11.13,5.76,13.64
				c0.13,3.82-0.07,7.66-0.41,11.46c-0.3,3.37-1.49,7.5-1.28,10.84c-0.33-5.33-0.66-10.67-0.99-16c-0.2-3.2-0.41-6.47-1.44-9.43
				c-0.13-0.37-0.32-0.78-0.65-0.82c-0.41-0.06-0.68,0.48-0.84,0.94c-6.63,18.9-9.55,40.67-12,60.93
				c-0.58,4.75-1.59,9.81-1.68,14.55c-0.1,5.64,0.39,11.35,0.58,16.99c0.02,0.51,0.02,1.07-0.27,1.44c-0.27,0.35-0.7,0.41-1.09,0.43
				c-2.64,0.18-5.29,0.06-7.91-0.37c0.11-9.91,0.38-19.82,0.8-29.72C75.3,208.2,75.39,205.58,75.5,202.95z"/>
			<g>
				<path class="st8" d="M119.03,123.32c0.19-1.48,0.3-2.96,0.26-4.47c0.07,3.52-4.71,10.85-6.2,13.91
					c-2.19,4.51-4.54,9.79-7.79,13.3c-5.81,6.27-10.61,11.04-14.49,19.81c-2.9,6.57-3.13,12.73-4.43,19.72
					c-0.5,2.66-0.96,5.32-1.39,8c-0.83,5.21-1.52,10.47-2,15.75c-0.93,10.45-0.71,20.88-0.85,31.37c1.75,0.22,3.53,0.17,5.27-0.17
					c0.31-0.06,0.65-0.15,0.86-0.43c0.16-0.22,0.22-0.53,0.28-0.83c0.69-3.77,1.1-7.51,1.81-11.26c2.49-13.1,7.51-27.79,13.78-38.88
					c8.86-15.68,19.81-29.96,22.24-49.43c-9,13.91-21.17,25.45-28.53,40.67c-1.96,4.04-3.78,8.17-5.47,12.39
					c-0.85,2.11-1.66,4.23-2.44,6.38c-0.39,1.07-0.77,2.15-1.14,3.23c-0.26,0.75-0.86,1.56-0.95,2.36
					c0.38-3.92,0.83-7.87,1.62-11.68c1.76-8.45,2.37-18.46,7.94-24.4c6.26-6.68,11.61-13.63,15.25-22.9
					c1.55-3.95,2.76-8.08,3.96-12.21C117.6,130.19,118.57,126.79,119.03,123.32z"/>
				<path class="st23" d="M115.18,166.66c-3.95,6.03-7.79,12.16-11.72,18.21c-2.53,4.82-5.07,9.64-7.6,14.46
					c-2.01,3.83-2.73,8.33-3.74,12.68c-1.68,7.1-2.96,14.3-4.83,21.29c-1.3-6.99-1.48-14.01-1.33-21.14
					c0.27-13.2,2.44-25.86,3.66-38.85c0.12-1.25,0.13-3.04,0.19-4.88c-1.97,5.63-2.29,11.08-3.42,17.16c-0.5,2.66-0.96,5.32-1.39,8
					c-0.83,5.21-1.52,10.47-2,15.75c-0.93,10.45-0.71,20.88-0.85,31.37c1.75,0.22,3.53,0.17,5.27-0.17
					c0.31-0.06,0.65-0.15,0.86-0.43c0.16-0.22,0.22-0.53,0.28-0.83c0.69-3.77,1.1-7.51,1.81-11.26c2.49-13.1,7.51-27.79,13.78-38.88
					c6.17-10.92,13.35-21.16,17.96-32.95c-0.35,0.42-0.7,0.84-1.05,1.25C119.2,160.57,117.2,163.58,115.18,166.66z"/>
				<g>
					<path class="st13" d="M112.67,145.74c1.55-3.95,2.76-8.08,3.96-12.21c0.97-3.34,1.94-6.74,2.39-10.22
						c0.19-1.48,0.3-2.96,0.26-4.47c0.07,3.52-4.71,10.85-6.2,13.91c-1.3,2.67-2.65,5.61-4.22,8.3c1.55-1.15,3.03-2.47,4.39-3.94
						c-2.79,9.63-7.54,17.57-12.39,25.74c-0.87,1.47-1.7,3.02-2.39,4.64C104.29,161.17,109.24,154.5,112.67,145.74z"/>
					<path class="st13" d="M111.7,159.29c4.36-4.56,8.69-8.75,12.41-14.34c0.01,1.8,0.01,3.59,0.02,5.39
						c1.01-3.39,1.79-6.92,2.26-10.65C121.95,146.56,116.73,152.85,111.7,159.29z"/>
				</g>
			</g>
			<path class="st8" d="M5.07,153.36c1.68-1.85,3.82-2.66,5.8-3.83c2.32-1.37,4.58-2.89,6.89-4.29c3.09-1.87,6.1-2.99,9.46-1.48
				c4.29,1.92,8.39,5.01,11.92,8.61c2.8,2.85,5.22,6.19,7.63,9.52c3.39,4.68,7,8.99,9.66,14.32c2.76,5.55,5.16,11.33,7.42,17.2
				c0.99,2.56,2.01,5.09,3.05,7.62c1.03,2.49,1.5,4.6,2.12,7.25c1.24,5.3,2.37,10.79,3.99,15.94c1.53,4.86,2.2,10,3.05,15.14
				c0.05,0.3,0.08,0.68-0.12,0.86c-0.12,0.11-0.28,0.12-0.43,0.12c-2.39,0.01-4.79,0.02-7.18,0.02c-0.4,0-4.37,0.26-4.45-0.42
				c-0.44-4.06-0.51-8.04-1.34-12.05c-1-4.87-2.28-9.64-3.78-14.31c-2.99-9.3-6.87-18.13-11.19-26.6
				c-2.35-4.62-4.84-9.13-7.39-13.58c-1.28-2.23-2.59-4.45-3.9-6.66c-0.63-1.06-1.27-2.13-1.91-3.19c-0.5-0.83-1.2-2.66-1.92-3.18
				c9.53,6.86,15.75,18.76,21.38,30.39c3.74,7.72,7.37,15.51,10.89,23.38c-2.33-10.41-5.65-20.38-10.13-29.69
				c-3.83-7.95-6.63-17.02-11.26-24.32c-3.08-4.85-7.28-8.9-12.2-10.15c-2-0.51-4.07-0.54-6.11-0.46
				C18.24,149.53,11.69,151.73,5.07,153.36z"/>
			<path class="st8" d="M75.9,180.38c0.62-5.34,1.43-10.66,2.86-15.76c3.18-11.31,9.27-21,15.26-30.47
				c-5.87,2.91-11.03,7.93-14.66,14.27c-1.54,2.69-2.81,5.6-4.06,8.51c-5.51,12.8-6.48,27.61-6.24,41.84
				c0.11,6.75,0.32,13.5,0.7,20.24c0.39,6.91,1.17,13.78,1.44,20.67c0.01,0.35,0.03,0.73,0.21,1.01c0.28,0.46,0.83,0.48,1.3,0.45
				c0.83-0.04,2.33,0.24,3.08-0.16c0.88-0.47,0.72-0.57,0.64-1.93c-0.14-2.33-0.38-4.66-0.56-6.98c-0.29-3.81-0.59-7.61-0.84-11.42
				c-0.5-7.51-0.79-15.04-0.52-22.57C74.76,192.17,75.22,186.26,75.9,180.38z"/>
			<path class="st13" d="M75.9,180.38c0.62-5.34,1.43-10.66,2.86-15.76c3.18-11.31,9.27-21,15.26-30.47
				c-0.79,0.39-1.56,0.82-2.32,1.29c-3.8,6.43-7.74,12.8-11.21,19.48c-0.83,1.59-1.58,3.2-2.25,4.82c-0.79,2.33-1.48,4.72-1.97,7.26
				c-1.78,9.26-3.14,18.97-3.64,28.47c-0.81,15.44,1.62,30.45,2.8,45.66c0.13-0.03,0.26-0.07,0.37-0.13
				c0.88-0.47,0.72-0.57,0.64-1.93c-0.14-2.33-0.38-4.66-0.56-6.98c-0.29-3.81-0.59-7.61-0.84-11.42
				c-0.5-7.51-0.79-15.04-0.52-22.57C74.76,192.17,75.22,186.26,75.9,180.38z"/>
			<path class="st14" d="M37.04,152.98c1.47,0.69,2.98,1.28,4.39,2.15c0.14,0.09,0.28,0.19,0.42,0.29
				c-0.87-1.06-1.77-2.08-2.71-3.04c-3.53-3.6-7.63-6.68-11.92-8.61c-3.36-1.51-6.37-0.39-9.46,1.48c-2.31,1.4-4.58,2.92-6.89,4.29
				c-1.97,1.17-4.11,1.97-5.8,3.83c6.62-1.63,13.17-3.83,19.97-3.83c2.04-0.08,4.11-0.05,6.11,0.46
				C33.26,150.52,35.23,151.58,37.04,152.98z"/>
		</g>
		<path class="st14" d="M68.39,218.1c0.31,5.07,0.38,10.38,0.45,15.54c0.03,2.55,0.04,5.12,0.04,7.68c0-0.28,5.79,0.54,6.39-0.24
			c0.35-0.46,0.3-1.96,0.33-2.57c0.07-1.31,0.09-2.63,0.09-3.95c0.01-2.71-0.05-5.43-0.17-8.14c-0.25-5.53-0.76-11.03-1.49-16.5
			c-1.28-9.65-3.55-19.12-6.76-28.17c-2.6-7.3-6.09-14.68-12.21-18.81c5.67,3.81,8.56,21.13,9.94,27.72
			C66.87,199.66,67.82,208.88,68.39,218.1z"/>
		<path class="st24" d="M97.77,197.4c0.07-0.16,0.14-0.31,0.21-0.47c-1.6,6.3-3.14,12.63-4.83,18.89
			c-1.58,5.85-1.78,12.84-1.83,18.98c2.24-9.04,6.08-17.49,11.17-24.6c-2.27,5.31-3.94,10.99-4.97,16.85
			c-0.16,0.92-1.91,13.56-1.91,13.56c-2.67,0.08-5.38-0.09-8.03,0.05c0.12-3.36,0.23-6.72,0.52-10.07c0.53-6.15,1.64-12.9,3.7-18.58
			C93.6,207.04,95.59,202.16,97.77,197.4z"/>
	</g>
	<path class="st24" d="M127.51,240.6c-3.53,0.06-7.06,0.11-10.59,0.17c-0.81-7.26,0.12-14.71-0.58-22.02
		c-0.73-7.66-2.09-15.23-4.05-22.56c6.24,10.8,8.22,23.1,10.72,35.69c1.73-6.43,3.51-13,6.89-18.36c-0.85,4.6-1.41,9.27-1.67,13.97
		c0,4.35-0.53,8.73-0.57,13.1C127.61,240.6,127.56,240.6,127.51,240.6z"/>
	<g>
		
			<linearGradient id="SVGID_00000034795797056052965320000011712574840028806033_" gradientUnits="userSpaceOnUse" x1="190.7873" y1="217.6253" x2="229.0536" y2="217.6253">
			<stop  offset="0" style="stop-color:#FF7300"/>
			<stop  offset="0.1616" style="stop-color:#F97C01"/>
			<stop  offset="0.4294" style="stop-color:#EA9602"/>
			<stop  offset="0.5039" style="stop-color:#E59E03"/>
			<stop  offset="0.8652" style="stop-color:#E5C500"/>
			<stop  offset="0.9944" style="stop-color:#BF6F00"/>
		</linearGradient>
		<path style="fill:url(#SVGID_00000034795797056052965320000011712574840028806033_);" d="M206,240.54
			c-3.5,0.28-7.07,0.14-10.59,0.2c-0.81-7.26,0.12-14.71-0.58-22.02c-0.73-7.66-2.09-15.23-4.05-22.56c0.65,2.43,2.58,4.94,3.54,7.3
			c1.17,2.89,2.14,5.9,2.98,8.96c0.73,2.64,0.9,6.12,2.01,8.53c2.87-9,7.01-17.39,12.18-24.69c0.63-0.88,1.41-1.83,2.36-1.75
			c0.61,0.05,1.15,0.52,1.63,0.98c3.92,3.69,7.47,7.97,10.55,12.7c-3.46-2.42-7.05-4.89-11.02-5.44c-0.75-0.1-1.55-0.12-2.21,0.33
			c-0.54,0.37-0.91,1.02-1.26,1.65c-4.42,8.04-8.36,16.22-8.38,25.97c1.71-4.1,4.6-7.83,7.99-9.91c1.99-1.22,7.58-3.6,9.75-2.85
			c0.71,0.24,1.31,0.81,1.89,1.36c2.08,1.98,4.17,3.97,6.25,5.95c-4.03,0.3-7.42-5.19-11.38-4.23c-1.7,0.41-3.04,1.95-4.29,3.42
			c-1.85,2.19-3.72,4.24-4.97,7.02c-0.29,0.64-2.61,9.1-2.25,9.07C206.11,240.53,206.06,240.54,206,240.54z"/>
		<path class="st26" d="M199.23,220.74c-1.02-2.39-1.22-5.75-1.92-8.31c-0.3-1.1-0.63-2.19-0.97-3.27c0.02,0.68,0.04,1.36,0.06,2.05
			c0.09,4.76,0.36,9.64-0.43,14.33c-0.23,1.35-0.55,2.68-0.88,4.01c-0.04,3.75-0.08,7.5,0.33,11.2c0.31-0.01,0.63,0,0.94-0.01
			c0.05-0.55,0.11-1.1,0.16-1.65c0.23-2.28,0.48-4.55,0.66-6.78c0.21-2.71,0.56-5.1,1.16-7.72
			C198.63,223.31,198.93,222.03,199.23,220.74z"/>
		<path class="st26" d="M203.18,230.3c0.09-7,2.2-13.2,5.03-19.12c-3.8,4.74-6.24,10.21-7.35,17.27c-0.64,4.04-0.81,8.16-0.86,12.28
			c0.32,0,0.65,0,0.97,0c0.52-2.52,1.11-5.03,1.8-7.47C202.9,232.26,203.02,231.27,203.18,230.3z"/>
	</g>
</g>
<g>
	<g>
		<path class="st27" d="M-76.09,133.29c1.93,0,1.93-3,0-3C-78.02,130.29-78.02,133.29-76.09,133.29L-76.09,133.29z"/>
	</g>
</g>
<g>
	<g>
		<path class="st28" d="M220.77,150.31c1.93,0,1.93-3,0-3C218.84,147.31,218.83,150.31,220.77,150.31L220.77,150.31z"/>
	</g>
</g>
</svg>
